<svg width="883" height="415" viewBox="0 0 883 415" fill="none" xmlns="http://www.w3.org/2000/svg">
<path d="M541 52C542.118 65.6404 546.686 79.7417 552.889 91.7169C549.355 94.1168 546.359 92.223 543.175 91.4556C539.993 90.6461 536.677 90.5044 533.437 91.0393C526.09 92.4597 522.964 96.1004 522.882 102.753C522.784 110.1 525.201 116.328 533.494 118.924C537.159 120.083 541.559 120.557 545.241 119.74C556.416 117.112 563.55 121.651 569.019 130.899C572.226 136.288 575.77 141.468 579.631 146.409C582.309 149.846 585.46 152.719 590.578 152.719C595.696 152.719 600.912 153.796 606.088 154.205C617.377 155.094 628.675 155.796 639.964 156.711C644.331 157.062 648.674 158.253 653.025 158.204C661.547 158.115 668.869 154.996 673.775 147.65C674.787 146.131 674.926 144.025 675.473 142.197L674.567 141.127C673.229 141.165 671.898 141.329 670.592 141.617C667.963 142.434 665.416 143.503 662.82 144.425C657.841 146.189 653.222 148.817 649.5 144.425C649.94 142.091 651.931 136.246 652.355 133.985L650.796 133.111L635.605 146.009C630.821 147.127 626.413 143.789 621.605 142.36C613.271 139.911 605.059 136.997 596.676 134.711C591.125 133.201 587.378 130.067 585.247 124.834C579.084 109.471 571.501 94.8596 561.493 81.6356C559.191 78.5989 555.942 76.2888 552.71 73.2522C550.441 79.0642 553.004 82.7131 555.902 86.0191C558.938 89.4884 562.432 92.5495 565.632 95.88C567.135 97.3878 568.501 99.0269 569.713 100.778C572.84 105.48 573.019 110.28 569.713 115.047C568.824 116.353 567.966 117.691 566.693 119.626C569.607 122.891 572.35 126.263 575.468 129.291C579.737 133.43 582.978 138.099 583.933 144.033C584.227 145.87 583.729 147.829 583.59 149.748" stroke="#F8D2C5" stroke-width="2" stroke-linecap="round" stroke-linejoin="round"/>
<path d="M455.772 310.075C456.589 306.124 458.009 302.198 458.107 298.23C458.393 286.843 463.38 277.472 470.115 268.892C475.959 261.464 482.588 254.648 488.326 247.138C492.138 242.159 494.897 236.404 493.306 229.669C493.11 228.853 492.742 228.037 492.375 227C487.396 229.367 485.69 234.224 483.575 238.673C482.22 241.538 481.469 244.681 480.237 247.612C477.559 253.971 472.89 258.844 468.057 263.587C463.739 267.782 459.519 272.28 457.895 278.28C456.27 284.28 455.274 290.214 454.172 296.239C453.405 300.426 452.94 304.655 452.319 308.981L457.127 310.899C455.495 315.258 454.229 319.519 452.393 323.527C451.748 324.948 449.944 326.074 448.401 326.793C442.687 329.454 439.936 335.478 440.956 341.559C441.618 345.535 441.079 349.722 441.079 353.804C441.079 356.522 440.034 359.967 441.307 361.804C443.577 365.069 441.65 367.028 440.181 368.832C436.095 373.823 430.148 376.333 424.385 379.232C399 392 223 414 1 414" stroke="#F8D2C5" stroke-width="2" stroke-linecap="round" stroke-linejoin="round"/>
<path d="M519.536 220.284C523.756 220.006 527.977 219.794 532.189 219.468C541.421 218.725 549.951 222.031 558.727 223.941C559.641 224.043 560.563 224.043 561.478 223.941C566.416 236.749 571.273 249.556 576.302 262.307C578.533 267.743 579.644 273.574 579.567 279.449C579.355 288.829 579.191 298.224 579.567 307.604C579.959 316.469 580.816 325.334 582.016 334.125C583.093 342.076 585.052 349.896 586.358 357.798C587.069 362.1 587.02 366.532 587.697 370.859C588.375 375.185 589.558 379.299 590.489 383.519C591.282 387.163 589.835 387.301 587.183 390.368C586.367 391.184 585.012 392.05 583.975 391.96C579.15 391.56 575.142 390.025 573.265 384.744C571.518 379.846 568.759 375.283 566.881 370.401C563.943 362.785 564.49 355.439 569.681 348.794" stroke="#F8D2C5" stroke-width="2" stroke-linecap="round" stroke-linejoin="round"/>
<path d="M506.475 70.0849C500.165 74.9337 494.761 80.558 492.679 88.468C491.568 92.7435 490.882 97.1183 490.63 101.529C490.108 110.361 490.524 119.267 489.545 128.034C488.973 133.185 487.422 138.744 484.647 143.013C480.198 149.805 479.202 157.339 477.57 164.8C475.464 174.416 473.717 184.114 471.79 193.762C471.585 194.47 471.311 195.156 470.974 195.811C468.329 202.219 465.945 203.158 459.121 202.015C451.717 200.758 445.105 203.346 439.179 207.729C438.51 208.219 438.363 209.501 437.824 210.946C446.803 209.933 455.285 208.497 463.668 212.79L454.974 219.737L455.521 220.782C459.113 221.966 462.411 220.211 465.652 219.043C474.231 215.925 478.312 208.954 480.761 200.701C483.088 193.044 485.235 185.289 488.222 177.894C490.206 172.996 494.165 168.833 496.091 163.894C498.867 156.784 500.818 149.323 502.72 141.903C505.128 132.573 507.071 123.128 509.348 113.765C509.862 111.651 510.94 109.684 511.756 107.635" stroke="#F8D2C5" stroke-width="2" stroke-linecap="round" stroke-linejoin="round"/>
<path d="M511.781 110.492C515.593 118.924 520.123 127.12 522.989 135.87C525.495 143.487 522.172 150.49 516.67 156.196C513.454 159.502 510.14 162.727 506.875 165.992C502.459 170.384 500.883 175.869 500.295 181.902C499.365 191.477 499.561 201.215 496.304 210.472C495.487 212.815 495.177 215.37 493.569 218.855L497.047 221.304C504.63 219.46 511.683 216.366 519.087 219.876" stroke="#F8D2C5" stroke-width="2" stroke-linecap="round" stroke-linejoin="round"/>
<path d="M522.5 232C523.993 230.776 526.156 227.973 527.715 226.831C528.587 226.192 529.428 225.642 530.262 225.11C531.424 224.367 532.967 224.487 533.873 225.526C537.757 229.98 539.169 235.237 541.323 240.218C544.956 248.634 549.69 256.544 553.796 264.78C557.306 271.817 559.469 279.204 559.167 287.22C558.955 292.657 559.086 298.102 559.167 303.546C559.122 308.23 560.002 312.877 561.757 317.22C563.512 321.562 566.108 325.515 569.396 328.852C571.338 330.852 573.706 332.435 575.877 334.207C575.689 334.647 575.51 335.088 575.322 335.537L567.657 338.802C559.069 328.264 552.825 316.607 551.184 303.114C550.564 297.947 551.38 292.33 552.817 287.261C555.265 278.355 552.817 271.45 546.588 265.131C541.473 260.136 536.705 254.796 532.319 249.148C529.217 245.01 527.315 239.981 524.826 235.377C524.21 234.382 523.534 233.425 522.801 232.512" stroke="#F8D2C5" stroke-width="2" stroke-linecap="round" stroke-linejoin="round"/>
<path d="M548.922 23.5558C548.718 14.4867 539.428 3.32786 530.555 1.51568C522.458 -0.11692 515.903 2.03811 511.348 9.2542C510.762 10.3708 509.923 11.3352 508.899 12.0704C504.148 14.8132 503.079 15.8989 502.866 20.6987C502.646 25.719 502.711 30.6167 505.136 35.4492C508.401 42.0286 507.291 44.7714 500.752 48.8365C494.932 52.4201 493.822 58.4444 497.16 62.2647C498.793 64.1258 501.169 65.3258 503.209 66.8196C504.156 67.5053 505.111 68.1747 506.066 68.8604" stroke="#F8D2C5" stroke-width="2" stroke-linecap="round" stroke-linejoin="round"/>
<path d="M508.924 12.5356C507.21 21.6618 508.924 30.4942 511.903 39.0164C514.352 46.0284 518.311 52.4037 524.858 56.5913C527.486 58.2729 530.221 58.5994 533.021 56.6403C535.372 55.0077 537.862 53.5465 540.368 52.1506C541.23 51.5648 542.259 51.2738 543.301 51.3208C544.342 51.3679 545.341 51.7506 546.147 52.4118C547.735 53.5048 549.58 54.2299 551.339 54.8728C553.177 55.5446 555.317 55.4206 556.73 54.0669C561.596 49.4047 559.904 43.6805 559.053 38.2572C558.661 35.743 557.502 33.3594 556.677 30.9105C554.816 25.4413 551.886 23.2618 546.065 24.0454C539.266 24.9597 533.731 23.0332 528.433 18.7558C523.536 14.8131 518.221 11.2459 511.773 10.0949" stroke="#F8D2C5" stroke-width="2" stroke-linecap="round" stroke-linejoin="round"/>
<path d="M584.839 152.123C583.321 163.723 577.713 173.232 569.73 181.51C566.89 184.652 563.893 187.649 560.75 190.489C554.612 195.681 553.624 201.778 556.669 208.921C556.897 209.452 557.5 212 558.5 213" stroke="#F8D2C5" stroke-width="2" stroke-linecap="round" stroke-linejoin="round"/>
<path d="M443.212 361.912C445.767 358.516 446.33 354.565 446.477 350.484C446.632 345.414 446.477 345.308 451.375 344.394C454.493 343.815 455.391 341.26 455.318 339.056C455.073 331.88 458.469 327.219 464.534 323.889C467.799 324.468 467.17 326.738 466.444 328.844C463.644 337.007 460.885 345.227 457.832 353.333C456.632 356.516 456.787 359.145 458.648 361.969C459.464 363.161 459.464 364.859 459.75 366.108C453.367 369.316 448.085 368.418 443.212 364.377" stroke="#F8D2C5" stroke-width="2" stroke-linecap="round" stroke-linejoin="round"/>
<path d="M886.5 392C870 392 601.5 392 584.5 392" stroke="#F8D2C5" stroke-width="2" stroke-linecap="round" stroke-linejoin="round"/>
<path d="M570.146 345.994C570.555 347.896 571.257 349.798 571.297 351.708C571.297 354.01 570.759 356.328 570.571 358.647C569.861 367.283 573.395 374.973 576.391 382.679C578.122 387.103 582.922 388.27 587.085 389.666" stroke="#F8D2C5" stroke-width="2" stroke-linecap="round" stroke-linejoin="round"/>
<path d="M507.292 68.4521L516.018 59.2769C523.503 60.8116 528.042 65.2522 531.25 70.9663C532.54 73.2683 532.882 76.3457 532.882 79.064C532.882 81.7823 531.372 84.2557 528.107 83.9047C521.25 83.1782 517.626 87.7494 513.814 92.1248" stroke="#F8D2C5" stroke-width="2" stroke-linecap="round" stroke-linejoin="round"/>
<path d="M561.167 223.549C560.212 220.145 559.322 216.725 558.269 213.354C558.024 212.586 557.153 212.59 556.5 212.5C546.868 211.178 537.437 206.962 527.642 210.839C523.356 212.537 519.666 214.496 518.662 219.468" stroke="#F8D2C5" stroke-width="2" stroke-linecap="round" stroke-linejoin="round"/>
<path d="M550.147 25.1884C550.147 28.5843 550.261 31.9964 550.147 35.3922C549.919 40.7716 546.555 43.9062 540.352 43.9715C540.482 46.4204 540.613 48.8693 540.743 51.3182" stroke="#F8D2C5" stroke-width="2" stroke-linecap="round" stroke-linejoin="round"/>
<path d="M558.718 212.937C564.228 213.754 568.865 216.08 572.432 220.586C571.093 223.492 568.791 224.251 566.065 224.374C564.841 224.431 563.616 224.635 562.392 224.774" stroke="#F8D2C5" stroke-width="2" stroke-linecap="round" stroke-linejoin="round"/>
<path d="M507.7 69.6768C508.924 70.6237 510.214 71.5053 511.365 72.542C515.569 76.3541 517.136 80.8764 515.095 86.4191C514.85 87.0966 513.361 91.1837 513.5 92" stroke="#F8D2C5" stroke-width="2" stroke-linecap="round" stroke-linejoin="round"/>
<path d="M457.497 309.669L467.342 314.877C469.611 310.077 471.423 304.836 474.329 300.347C482.492 287.874 489.39 274.462 500.769 264.372C507.061 258.677 512.086 251.725 515.52 243.965C517.561 239.557 520.246 235.443 522.36 231.72C521.226 227.574 520.181 223.721 519.095 219.876" stroke="#F8D2C5" stroke-width="2" stroke-linecap="round" stroke-linejoin="round"/>
</svg>
