<svg width="328" height="397" viewBox="0 0 328 397" fill="none" xmlns="http://www.w3.org/2000/svg">
<path d="M160.998 52C162.116 65.6404 166.684 79.7417 172.888 91.7169C169.353 94.1168 166.358 92.223 163.174 91.4556C159.991 90.6461 156.676 90.5044 153.436 91.0393C146.089 92.4597 142.962 96.1004 142.881 102.753C142.783 110.1 145.199 116.328 153.493 118.924C157.158 120.083 161.558 120.557 165.239 119.74C176.414 117.112 183.549 121.651 189.018 130.899C192.224 136.288 195.769 141.468 199.63 146.409C202.307 149.846 205.458 152.719 210.576 152.719C215.695 152.719 220.911 153.796 226.086 154.205C237.376 155.094 248.673 155.796 259.963 156.711C264.33 157.062 268.672 158.253 273.023 158.204C281.546 158.115 288.868 154.996 293.774 147.65C294.786 146.131 294.925 144.025 295.472 142.197L294.565 141.127C293.228 141.165 291.897 141.329 290.59 141.617C287.962 142.434 285.415 143.503 282.819 144.425C277.84 146.189 273.22 148.817 269.498 144.425C269.939 142.091 271.93 136.246 272.354 133.985L270.795 133.111L255.604 146.009C250.82 147.127 246.412 143.789 241.604 142.36C233.27 139.911 225.058 136.997 216.674 134.711C211.123 133.201 207.377 130.067 205.246 124.834C199.083 109.471 191.5 94.8596 181.492 81.6356C179.19 78.5989 175.941 76.2888 172.708 73.2522C170.439 79.0642 173.002 82.7131 175.9 86.0191C178.937 89.4884 182.43 92.5495 185.63 95.88C187.134 97.3878 188.5 99.0269 189.712 100.778C192.838 105.48 193.018 110.28 189.712 115.047C188.822 116.353 187.965 117.691 186.692 119.626C189.606 122.891 192.348 126.263 195.467 129.291C199.736 133.43 202.977 138.099 203.932 144.033C204.226 145.87 203.728 147.829 203.589 149.748" stroke="#F8D2C5" stroke-width="2" stroke-linecap="round" stroke-linejoin="round"/>
<path d="M75.7708 310.075C76.5871 306.124 78.0074 302.198 78.1053 298.23C78.3911 286.843 83.3787 277.472 90.1132 268.892C95.9579 261.464 102.586 254.648 108.325 247.138C112.137 242.159 114.896 236.404 113.304 229.669C113.108 228.853 112.741 228.037 112.374 227C107.394 229.367 105.688 234.224 103.574 238.673C102.219 241.538 101.468 244.681 100.235 247.612C97.5578 253.971 92.8885 258.844 88.056 263.587C83.7378 267.782 79.5176 272.28 77.8932 278.28C76.2688 284.28 75.2729 290.214 74.1709 296.239C73.4035 300.426 72.9382 304.655 72.3178 308.981L77.1259 310.899C75.4933 315.258 74.228 319.519 72.3913 323.527C71.7464 324.948 69.9424 326.074 68.3996 326.793C62.6855 329.454 59.9346 335.478 60.955 341.559C61.6162 345.535 61.0774 349.722 61.0774 353.804C61.0774 356.522 60.0325 359.967 61.3059 361.804C63.5752 365.069 61.6488 367.028 60.1795 368.832C56.0935 373.823 52.5 377 38.9995 386C-10.3745 418.915 -6.50029 351.5 25.5001 379" stroke="#F8D2C5" stroke-width="2" stroke-linecap="round" stroke-linejoin="round"/>
<path d="M139.535 220.284C143.755 220.006 147.975 219.794 152.187 219.468C161.42 218.725 169.95 222.031 178.725 223.941C179.639 224.043 180.562 224.043 181.476 223.941C186.415 236.749 191.272 249.556 196.3 262.307C198.532 267.743 199.643 273.574 199.565 279.449C199.353 288.829 199.19 298.224 199.565 307.604C199.957 316.469 200.814 325.334 202.014 334.125C203.092 342.076 205.051 349.896 206.357 357.798C207.067 362.1 207.018 366.532 207.696 370.859C208.373 375.185 209.557 379.299 210.487 383.519C211.281 387.163 209.833 387.301 207.181 390.368C206.365 391.184 205.01 392.05 203.973 391.96C199.149 391.56 195.141 390.025 193.263 384.744C191.517 379.846 188.758 375.283 186.88 370.401C183.941 362.785 184.488 355.439 189.68 348.794" stroke="#F8D2C5" stroke-width="2" stroke-linecap="round" stroke-linejoin="round"/>
<path d="M126.473 70.0849C120.163 74.9337 114.759 80.558 112.678 88.468C111.567 92.7435 110.88 97.1183 110.629 101.529C110.106 110.361 110.523 119.267 109.543 128.034C108.972 133.185 107.421 138.744 104.645 143.013C100.197 149.805 99.2007 157.339 97.5681 164.8C95.4621 174.416 93.7152 184.114 91.7887 193.762C91.5833 194.47 91.31 195.156 90.9724 195.811C88.3276 202.219 85.944 203.158 79.1198 202.015C71.7159 200.758 65.1039 203.346 59.1776 207.729C58.5082 208.219 58.3613 209.501 57.8225 210.946C66.8018 209.933 75.2832 208.497 83.6665 212.79L74.973 219.737L75.5199 220.782C79.1116 221.966 82.4094 220.211 85.6502 219.043C94.2295 215.925 98.311 208.954 100.76 200.701C103.086 193.044 105.233 185.289 108.221 177.894C110.204 172.996 114.163 168.833 116.09 163.894C118.865 156.784 120.816 149.323 122.718 141.903C125.126 132.573 127.069 123.128 129.347 113.765C129.861 111.651 130.938 109.684 131.755 107.635" stroke="#F8D2C5" stroke-width="2" stroke-linecap="round" stroke-linejoin="round"/>
<path d="M131.779 110.492C135.591 118.924 140.122 127.12 142.987 135.87C145.493 143.487 142.171 150.49 136.669 156.196C133.453 159.502 130.138 162.727 126.873 165.992C122.457 170.384 120.882 175.869 120.294 181.902C119.363 191.477 119.559 201.215 116.302 210.472C115.486 212.815 115.176 215.37 113.568 218.855L117.045 221.304C124.628 219.46 131.681 216.366 139.085 219.876" stroke="#F8D2C5" stroke-width="2" stroke-linecap="round" stroke-linejoin="round"/>
<path d="M142.498 232C143.992 230.776 146.155 227.973 147.714 226.831C148.585 226.192 149.426 225.642 150.26 225.11C151.422 224.367 152.965 224.487 153.872 225.526C157.756 229.98 159.167 235.237 161.322 240.218C164.954 248.634 169.689 256.544 173.795 264.78C177.305 271.817 179.468 279.204 179.166 287.22C178.954 292.657 179.084 298.102 179.166 303.546C179.12 308.23 180 312.877 181.755 317.22C183.511 321.562 186.107 325.515 189.394 328.852C191.337 330.852 193.704 332.435 195.876 334.207C195.688 334.647 195.508 335.088 195.32 335.537L187.655 338.802C179.068 328.264 172.823 316.607 171.183 303.114C170.562 297.947 171.378 292.33 172.815 287.261C175.264 278.355 172.815 271.45 166.587 265.131C161.471 260.136 156.704 254.796 152.318 249.148C149.216 245.01 147.314 239.981 144.824 235.377C144.208 234.382 143.532 233.425 142.8 232.512" stroke="#F8D2C5" stroke-width="2" stroke-linecap="round" stroke-linejoin="round"/>
<path d="M168.921 23.5558C168.716 14.4867 159.427 3.32786 150.554 1.51568C142.456 -0.11692 135.901 2.03811 131.346 9.2542C130.76 10.3708 129.922 11.3352 128.897 12.0704C124.147 14.8132 123.077 15.8989 122.865 20.6987C122.645 25.719 122.71 30.6167 125.134 35.4492C128.399 42.0286 127.289 44.7714 120.751 48.8365C114.931 52.4201 113.82 58.4444 117.159 62.2647C118.792 64.1258 121.167 65.3258 123.208 66.8196C124.155 67.5053 125.11 68.1747 126.065 68.8604" stroke="#F8D2C5" stroke-width="2" stroke-linecap="round" stroke-linejoin="round"/>
<path d="M128.923 12.5356C127.208 21.6618 128.923 30.4942 131.902 39.0164C134.351 46.0284 138.31 52.4037 144.857 56.5913C147.485 58.2729 150.22 58.5994 153.02 56.6403C155.371 55.0077 157.86 53.5465 160.366 52.1506C161.229 51.5648 162.258 51.2738 163.3 51.3208C164.341 51.3679 165.34 51.7506 166.146 52.4118C167.734 53.5048 169.579 54.2299 171.338 54.8728C173.176 55.5446 175.316 55.4206 176.729 54.0669C181.595 49.4047 179.903 43.6805 179.052 38.2572C178.66 35.743 177.501 33.3594 176.676 30.9105C174.815 25.4413 171.884 23.2618 166.064 24.0454C159.264 24.9597 153.73 23.0332 148.432 18.7558C143.534 14.8131 138.22 11.2459 131.771 10.0949" stroke="#F8D2C5" stroke-width="2" stroke-linecap="round" stroke-linejoin="round"/>
<path d="M204.838 152.123C203.32 163.723 197.712 173.232 189.728 181.51C186.888 184.652 183.891 187.649 180.749 190.489C174.61 195.681 173.623 201.778 176.667 208.921C176.896 209.452 177.498 212 178.498 213" stroke="#F8D2C5" stroke-width="2" stroke-linecap="round" stroke-linejoin="round"/>
<path d="M63.2107 361.912C65.7657 358.516 66.329 354.565 66.4759 350.484C66.631 345.414 66.4759 345.308 71.3737 344.394C74.4919 343.815 75.3899 341.26 75.3164 339.056C75.0715 331.88 78.4673 327.219 84.5324 323.889C87.7976 324.468 87.1691 326.738 86.4426 328.844C83.6427 337.007 80.8836 345.227 77.8306 353.333C76.6307 356.516 76.7858 359.145 78.6469 361.969C79.4632 363.161 79.4632 364.859 79.7489 366.108C73.3655 369.316 68.084 368.418 63.2107 364.377" stroke="#F8D2C5" stroke-width="2" stroke-linecap="round" stroke-linejoin="round"/>
<path d="M326.5 388C261.5 379.5 232 399.5 204.498 392" stroke="#F8D2C5" stroke-width="2" stroke-linecap="round" stroke-linejoin="round"/>
<path d="M190.145 345.994C190.553 347.896 191.255 349.798 191.296 351.708C191.296 354.01 190.757 356.328 190.569 358.647C189.859 367.283 193.394 374.973 196.39 382.679C198.12 387.103 202.92 388.27 207.083 389.666" stroke="#F8D2C5" stroke-width="2" stroke-linecap="round" stroke-linejoin="round"/>
<path d="M127.29 68.4521L136.016 59.2769C143.502 60.8116 148.04 65.2522 151.248 70.9663C152.538 73.2683 152.881 76.3457 152.881 79.064C152.881 81.7823 151.371 84.2557 148.106 83.9047C141.249 83.1782 137.624 87.7494 133.812 92.1248" stroke="#F8D2C5" stroke-width="2" stroke-linecap="round" stroke-linejoin="round"/>
<path d="M181.166 223.549C180.211 220.145 179.321 216.725 178.268 213.354C178.023 212.586 177.152 212.59 176.499 212.5C166.866 211.178 157.436 206.962 147.64 210.839C143.355 212.537 139.665 214.496 138.661 219.468" stroke="#F8D2C5" stroke-width="2" stroke-linecap="round" stroke-linejoin="round"/>
<path d="M170.146 25.1884C170.146 28.5843 170.26 31.9964 170.146 35.3922C169.917 40.7716 166.554 43.9062 160.35 43.9715C160.481 46.4204 160.611 48.8693 160.742 51.3182" stroke="#F8D2C5" stroke-width="2" stroke-linecap="round" stroke-linejoin="round"/>
<path d="M178.717 212.937C184.227 213.754 188.864 216.08 192.431 220.586C191.092 223.492 188.79 224.251 186.064 224.374C184.839 224.431 183.615 224.635 182.39 224.774" stroke="#F8D2C5" stroke-width="2" stroke-linecap="round" stroke-linejoin="round"/>
<path d="M127.698 69.6768C128.923 70.6237 130.212 71.5053 131.363 72.542C135.567 76.3541 137.135 80.8764 135.094 86.4191C134.849 87.0966 133.359 91.1837 133.498 92" stroke="#F8D2C5" stroke-width="2" stroke-linecap="round" stroke-linejoin="round"/>
<path d="M77.4958 309.669L87.3404 314.877C89.6097 310.077 91.4219 304.836 94.3279 300.347C102.491 287.874 109.389 274.462 120.768 264.372C127.059 258.677 132.084 251.725 135.518 243.965C137.559 239.557 140.245 235.443 142.359 231.72C141.224 227.574 140.179 223.721 139.094 219.876" stroke="#F8D2C5" stroke-width="2" stroke-linecap="round" stroke-linejoin="round"/>
</svg>
