<svg width="603" height="383" viewBox="0 0 603 383" fill="none" xmlns="http://www.w3.org/2000/svg">
<path d="M413.534 259.132C408.005 260.419 405.431 289.637 405.431 289.637C405.431 289.637 402.495 310.295 402.571 321.573C402.698 329.282 399.049 335.526 394.506 341.754C393.933 342.559 393.4 343.393 392.897 344.232C390.883 347.587 390.255 352.533 393.847 354.085C395.236 354.686 396.777 354.875 398.29 355.015C406.283 355.704 414.059 357.973 421.169 361.688C433.953 368.409 477.807 376.515 492.059 377.03C521.629 377.03 598.778 378.706 598.778 348.535C598.778 323.95 535.082 353.563 601.013 381.5" stroke="black" stroke-width="2" stroke-linecap="round" stroke-linejoin="round"/>
<path d="M393.037 18.0799C398.118 15.8491 403.018 12.7032 408.29 11.626C415.506 10.1674 417.003 14.095 417.518 19.0045C419.158 34.6101 416.565 49.7009 413.457 64.763C400.177 83.7241 383.99 92.6468 393.037 102.313C399.834 107.499 404.982 110.226 408.29 117.566C412.104 126.17 411.14 138.926 400.177 142.352C392.551 144.735 393.037 153.792 400.177 155.956C412.999 157.443 422.218 168.082 424.153 179.665C425.564 188.092 424.153 195.871 421.074 203.497C417.823 211.533 411.77 214.87 403.047 213.983C393.657 213.03 384.314 211.667 374.915 210.761C372.055 210.475 368.252 213.373 367.288 215.471C366.325 217.568 364.439 223.039 379.252 223.917C391.312 224.632 403.39 225.347 415.478 225.337C428.621 225.337 451.764 227.741 456.251 241.972C450.236 246.739 448.806 262.945 447.376 268.665" stroke="black" stroke-width="2" stroke-linecap="round" stroke-linejoin="round"/>
<path d="M449.283 343.976C454.45 351.735 465.279 356.34 473.629 358.313C474.964 358.628 476.604 357.655 479.178 357.017C476.871 353.833 475.622 351.135 473.553 349.39C455.44 334.347 452.342 314.118 464.449 293.965C474.306 277.578 472.342 269.103 484.468 254.375C488.409 249.468 491.605 244.007 493.954 238.168C497.176 230.313 494.974 223.64 485.469 220.818C477.528 218.464 472.848 216.357 464.536 215.756C452.972 214.927 451.351 214.145 439.75 214.145C434.65 214.145 412.867 213.573 406.861 214.145" stroke="black" stroke-width="2" stroke-linecap="round" stroke-linejoin="round"/>
<path d="M227.217 345.182C198.163 363.62 54.0088 367.532 1.48755 360.268" stroke="black" stroke-width="2" stroke-linecap="round" stroke-linejoin="round"/>
<path d="M265.295 250.209C258.155 253.822 250.995 257.397 242.892 258.312C229.67 259.809 217.954 257.645 209.422 245.995C206.657 242.182 203.235 239.055 201.281 234.556C199.45 230.323 193.864 228.636 189.031 229.723C176.705 232.506 165.597 232.317 153.904 251.2C141.578 271.105 139.356 292.288 147.812 314.042C153.437 328.504 163.52 341.018 178.048 346.3C183.568 348.311 199.28 348.535 207.103 348.535" stroke="black" stroke-width="2" stroke-linecap="round" stroke-linejoin="round"/>
<path d="M301.998 336.826C307.718 341.707 336.793 344.452 333.933 348.742" stroke="black" stroke-width="2" stroke-linecap="round" stroke-linejoin="round"/>
<path d="M205.714 240.542C206.191 242.763 207.135 248.722 208.183 250.686C213.15 259.799 221.825 264.127 230.958 267.94C239.776 271.62 247.459 276.835 252.95 285.023C259.852 295.319 259.795 306.187 255.162 316.93C249.442 330.21 232.426 342.927 226.22 345.596C220.014 348.265 208.081 348.534 202.633 348.534" stroke="black" stroke-width="2" stroke-linecap="round" stroke-linejoin="round"/>
<path d="M298.184 314.557C295.525 298.293 297.231 282.249 301.14 266.434C302.884 259.456 304.953 252.64 309.967 246.758C317.203 238.178 320.559 236.462 330.12 234.346M435.26 285.043C435.622 287.235 434.373 290.133 432.991 292.107C424.888 303.699 419.444 316.53 415.04 329.848C413.562 334.336 415.151 339.169 416.394 343.499C421.161 349.095 422.114 349.695 429.264 353.985C432.124 355.415 444.516 358.275 432.991 365.902" stroke="black" stroke-width="2" stroke-linecap="round" stroke-linejoin="round"/>
<path d="M329.643 48.5855C325.734 52.2938 322.741 56.393 321.349 61.9317C320.539 65.0967 318.308 67.7087 314.466 69.3198C304.38 73.5239 294.695 78.6717 284.838 83.4191C278.165 86.6222 271.491 89.8348 264.818 92.9521C257.192 96.4698 248.612 93.1333 244.58 84.8681C246.238 84.8681 247.764 84.544 249.079 84.9349C252.158 85.8405 255.057 87.585 258.174 88.0617C261.291 88.5383 265.038 89.015 267.078 84.6203C256.83 82.3324 254.685 74.134 253.531 65.783C252.645 59.3673 252.978 52.7705 252.978 46.2594C252.978 44.6102 253.741 42.9705 254.189 41.1592L259.909 42.9514C260.948 40.4728 262.578 38.1849 262.769 35.7636C263.017 32.2745 264.675 31.1972 267.688 30.997C272.931 30.6634 278.174 30.3679 283.417 30.0437C285.486 29.9198 287.745 30.2154 289.566 29.4622C292.273 28.3469 295.896 27.67 296.239 23.8473C296.544 20.2247 294.523 17.6508 291.53 15.7442C284.113 10.9777 275.896 8.85184 267.221 8.1178C259.709 7.48862 252.244 7.16449 245.295 10.9777C230.471 19.0903 224.713 40.0534 238.622 53.8763C241.072 56.2977 242.911 59.8249 247.201 59.5961" stroke="black" stroke-width="2" stroke-linecap="round" stroke-linejoin="round"/>
<path d="M329.166 80.521C324.123 80.4543 320.444 82.9424 316.697 86.155C305.308 95.9168 293.707 105.45 281.892 114.754C278.966 117.052 274.981 118.024 271.492 119.625C268.729 120.758 266.033 122.047 263.417 123.486C259.328 125.984 251.348 124.344 247.716 119.578C244.942 115.946 242.673 111.951 240.185 108.091C233.512 112.304 231.367 115.154 230.595 120.407C234.17 122.104 238.126 123.086 240.881 125.46C249.661 133.019 259.156 131.427 268.584 128.081C275.734 125.536 282.483 121.875 289.881 118.548C297.065 134.364 289.846 138.854 290.596 153.792C290.968 161.351 291.912 169.474 287.221 175.718C286.761 176.617 284.362 182.391 278.165 185.727" stroke="black" stroke-width="2" stroke-linecap="round" stroke-linejoin="round"/>
<path d="M331.073 79.0909C336.116 78.7668 339.653 75.7543 342.999 72.4178C349.09 66.3834 354.133 59.7579 355.392 50.9589C355.878 47.5556 354.696 45.1247 350.863 42.322C347.374 44.1238 343.494 46.0685 339.7 48.1467C339.186 48.4231 338.928 49.3383 338.747 50.0056C336.173 59.062 333.78 68.1184 331.063 77.1557C327.381 89.2818 330.003 103.894 333.942 115.307C338.919 129.749 343.561 144.316 348.823 158.644C352.637 168.93 349.92 177.958 344.905 186.795C338.766 197.624 332.608 208.454 331.13 221.114C330.615 225.537 330.463 230.008 330.177 234.46" stroke="black" stroke-width="2" stroke-linecap="round" stroke-linejoin="round"/>
<path d="M278.165 215.89C277.85 216.996 277.812 218.33 277.211 219.188C272.148 226.059 268.469 233.849 266.382 242.125C265.738 244.937 265.567 247.836 265.877 250.705C267.02 265.004 268.651 279.304 269.48 293.603C269.785 298.789 268.422 304.09 267.707 309.314C267.164 313.317 268.021 314.747 272.016 315.033C275.276 315.224 276.277 317.14 276.782 319.857C277.955 326.092 276.105 331.478 272.54 336.578C270.29 339.791 269.728 343.366 271.978 347.064C272.755 348.477 273.959 349.607 275.419 350.292C276.878 350.977 278.517 351.182 280.1 350.878C286.484 350.11 292.956 350.572 299.166 352.241C307.564 354.262 316.049 356.283 324.905 354.319C328.613 353.499 331.95 352.527 333.942 349.009" stroke="black" stroke-width="2" stroke-linecap="round" stroke-linejoin="round"/>
<path d="M370.635 11.4066C369.463 3.44657 364.696 -0.538256 356.851 1.54948C344.782 4.77164 332.894 8.78506 321.149 13.0749C319.243 13.7613 317.737 17.4982 317.412 20.0054C316.726 25.3343 316.879 30.7872 316.793 36.2115C316.736 39.6053 323.542 46.6406 326.783 46.6978C328.833 46.6978 329.863 44.2384 329.195 41.4452C328.29 37.632 327.575 33.8188 326.783 30.0056" stroke="black" stroke-width="2" stroke-linecap="round" stroke-linejoin="round"/>
<path d="M291.034 28.0896C290.357 19.7959 284.361 16.1352 277.688 13.9236C269.811 11.4223 261.394 11.1648 253.379 13.18C243.684 15.4107 233.579 29.2336 239.594 41.8934C241.424 45.7066 243.493 49.5198 245.257 53.333C245.889 55.0316 246.384 56.7787 246.734 58.5571" stroke="black" stroke-width="2" stroke-linecap="round" stroke-linejoin="round"/>
<path d="M447.376 268.322C446.9 272.926 446.566 277.559 445.918 282.135C444.421 292.621 442.619 303.108 441.256 313.594C440.712 317.629 439.04 321.429 436.432 324.557C431.075 331.316 431.227 333.022 437.386 339.324C437.776 339.733 448.902 343.518 449.283 343.976" stroke="black" stroke-width="2" stroke-linecap="round" stroke-linejoin="round"/>
<path d="M310.101 249.599C309.863 247.768 312.246 237.663 312.56 235.919C314.152 225.88 316.564 215.947 317.517 205.861C318.146 199.293 317.212 192.458 316.135 185.842C315.449 181.609 312.064 178.616 307.708 177.786C300.815 176.471 292.627 174.497 287.498 179.436C278.708 187.891 267.736 188.768 257.164 191.418C254.256 192.143 251.129 191.895 248.584 193.926" stroke="black" stroke-width="2" stroke-linecap="round" stroke-linejoin="round"/>
<path d="M290.558 29.9961C290.649 30.6284 290.649 31.2704 290.558 31.9027C288.823 37.5081 288.499 42.7799 293.418 47.2127C294.371 48.1184 294.876 49.6246 295.324 50.5016C295.324 51.2929 295.439 51.8267 295.324 51.903C290.501 54.6103 290.358 59.0337 290.51 63.8479C290.758 71.3885 290.348 71.8365 282.95 71.8842C277.707 71.8842 272.273 72.0272 267.288 70.7307C264.218 69.9299 260.996 67.0414 259.299 64.2101C256.315 59.2434 252.511 58.7477 247.678 60.0346" stroke="black" stroke-width="2" stroke-linecap="round" stroke-linejoin="round"/>
<path d="M310.101 248.302C310.084 251.008 309.909 253.711 309.576 256.396C306.907 271.258 308.528 285.948 310.53 300.743C310.946 304.545 310.946 308.381 310.53 312.183C310.396 313.766 309.109 315.253 308.623 316.311L299.233 315.529" stroke="black" stroke-width="2" stroke-linecap="round" stroke-linejoin="round"/>
<path d="M330.12 233.869C330.311 237.282 335.916 249.255 338.223 251.505C350.616 263.898 365.535 261.086 382.142 262.344C389.339 262.897 396.737 260.686 404.068 259.751C405.974 259.504 411.065 260.009 413.534 259.751" stroke="black" stroke-width="2" stroke-linecap="round" stroke-linejoin="round"/>
<path d="M393.038 19.9865C399.625 25.5823 401.618 32.4747 398.205 40.4443C396.565 44.2575 395.984 47.861 397.252 51.9411C398.634 56.3739 392.333 72.6564 388.195 74.0959C385.269 75.1159 381.351 74.7251 378.319 73.6764C373.8 72.1035 369.682 69.3961 365.392 67.1749" stroke="black" stroke-width="2" stroke-linecap="round" stroke-linejoin="round"/>
<path d="M368.728 35.7159C366.98 41.9124 365.233 48.1089 363.485 54.3053C361.369 61.7538 359.233 69.2181 357.079 76.6984C362.417 76.7937 362.884 76.1645 364.915 66.2121" stroke="black" stroke-width="2" stroke-linecap="round" stroke-linejoin="round"/>
<path d="M370.158 11.4067C367.298 12.5126 364.143 13.1799 361.645 14.8386C356.764 18.0798 354.781 25.8016 356.812 31.4261C358.423 35.8685 363.275 37.8513 368.671 35.1249C379.157 29.8531 382.703 31.3688 391.407 18.6327C385.354 14.1331 379.11 10.5488 371.111 11.8834" stroke="black" stroke-width="2" stroke-linecap="round" stroke-linejoin="round"/>
<path d="M239.08 199.684C212.7 196.806 203.808 221.476 205.715 241.162" stroke="black" stroke-width="2" stroke-linecap="round" stroke-linejoin="round"/>
<path d="M238.603 200.027C229.547 200.027 223.827 211.943 223.827 211.943C221.92 216.233 219.204 220.18 218.584 221.133C214.614 227.153 210.948 230.593 205.789 227.348C200.988 224.329 200.282 217.815 201.66 212.313C205.491 197.017 209.608 181.518 212.54 165.784C214.256 156.566 213.379 146.718 212.712 137.252C211.663 122.418 209.794 107.614 213.369 92.9233C215.571 83.8479 220.414 77.0413 230.462 75.2014C234.057 74.443 237.569 73.3351 240.948 71.8935C247.107 69.453 248.861 65.7733 247.164 59.5005" stroke="black" stroke-width="2" stroke-linecap="round" stroke-linejoin="round"/>
<path d="M345.372 19.033C341.874 18.871 338.375 18.5087 334.886 18.6326C332.741 18.6993 330.615 19.5096 328.156 20.0721C329.357 23.361 330.377 25.6775 331.016 28.0989C331.874 31.283 331.893 34.2858 327.717 35.2391" stroke="black" stroke-width="2" stroke-linecap="round" stroke-linejoin="round"/>
<path d="M348.232 16.6499C348.375 12.0741 350.139 9.88146 355.687 8.32758C355.563 9.70033 355.887 11.1875 355.306 11.8072C353.682 13.7077 351.748 15.3193 349.586 16.5737C347.393 17.6986 346.164 18.5375 345.658 21.4069C344.257 29.2907 341.988 37.0029 340.158 44.8105C340.145 45.6221 340.291 46.4283 340.587 47.1842" stroke="black" stroke-width="2" stroke-linecap="round" stroke-linejoin="round"/>
<path d="M277.689 219.703C281.254 226.891 275.639 242.916 266.726 247.349" stroke="black" stroke-width="2" stroke-linecap="round" stroke-linejoin="round"/>
<path d="M371.112 12.36C372.904 19.6051 371.046 26.6596 370.159 33.8093" stroke="black" stroke-width="2" stroke-linecap="round" stroke-linejoin="round"/>
<path d="M333.457 54.782C334.296 51.4168 331.436 50.3301 329.644 48.5855" stroke="black" stroke-width="2" stroke-linecap="round" stroke-linejoin="round"/>
</svg>
