<svg width="1440" height="331" viewBox="0 0 1440 331" fill="none" xmlns="http://www.w3.org/2000/svg">
<path d="M645.247 166.449C648.075 158.41 643.806 153.442 638.117 148.618C633.138 144.415 628.048 139.991 624.333 134.735C616.782 124.045 615.606 112.302 623.225 101.091C629.701 91.5211 629.567 81.9846 625.975 71.6053C623.08 63.2665 624.411 55.4488 630.865 48.8952C636.531 43.1511 644.715 43.2177 650.825 45.5685C653.431 46.5887 655.848 48.0857 658.354 49.3609L659.873 48.7621C659.641 46.3891 659.596 43.9717 659.131 41.643C656.913 30.8757 659.508 21.8492 668.002 14.4196C679.368 4.43957 692.397 0.236858 707.412 1.11288C713.755 1.501 719.366 3.59686 722.781 8.99718C724.456 11.6474 725.72 15.3733 722.382 18.3341" stroke="#F8D2C5" stroke-width="2" stroke-linecap="round" stroke-linejoin="round"/>
<path d="M660.216 316.15C664.352 322.648 671.627 323.18 677.958 324.888C692.44 328.78 707.289 329.944 722.314 329.523C726.107 329.412 728.269 327.793 729.522 324.467C728.524 319.576 724.066 319.277 720.651 318.479C700.347 313.766 679.71 315.03 658.785 315.229C645.08 300.67 648.894 261.038 656.457 252.832C665.461 255.05 674.487 256.647 683.858 248.995C681.558 248.353 679.226 247.831 676.872 247.432C672.07 246.944 667.202 247.021 662.456 246.201C656.113 245.092 653.585 240.656 655.869 234.679C658.675 227.516 661.491 220.264 665.35 213.61C672.126 202.011 671.87 190.689 667.014 178.547C663.044 168.634 660.061 158.321 657.033 148.075C656.312 144.999 656.106 141.825 656.424 138.682C656.812 130.92 657.1 123.158 658.12 115.395C659.673 103.741 673.988 94.4928 685.188 97.6532C692.063 99.6159 695.49 105.482 697.186 111.525C699.826 120.918 701.245 130.665 702.897 140.357C704.243 148.267 705.352 156.21 706.224 164.187C707.056 171.727 714.374 177.338 722.857 177.494C728.402 177.627 733.946 178.225 740.489 178.68C736.586 185.178 731.307 185.821 726.206 185.034C721.538 184.313 717.091 182.118 712.09 180.421C712.778 187.995 713.72 194.626 713.898 201.291C714.075 208.199 716.592 213.566 722.314 217.358C738.578 228.115 754.842 238.834 771.105 249.516" stroke="#F8D2C5" stroke-width="2" stroke-linecap="round" stroke-linejoin="round"/>
<path d="M658.554 129.856C660.583 138.35 662.335 146.933 664.719 155.361C669.155 170.952 673.867 186.41 678.525 201.934C679.922 206.58 681.352 211.227 682.96 215.795C687.152 227.661 696.5 234.647 706.768 240.768C718.032 247.444 729.916 253.015 742.253 257.401C743.824 258.15 748.623 258.936 750.001 260" stroke="#F8D2C5" stroke-width="2" stroke-linecap="round" stroke-linejoin="round"/>
<path d="M692.93 46.689C694.305 55.7043 701.923 60.0845 707.345 65.4737C707.345 74.3448 705.261 76.0747 696.822 74.3448C692.165 73.4023 687.341 72.7259 682.994 70.9405C670.951 65.9838 664.819 60.0068 666.505 43.9057C667.441 32.9455 672.244 22.6754 680.055 14.9302C690.701 4.38464 713.855 3.02073 722.781 19.8094C720.408 20.9959 718.113 22.382 715.651 23.3246C710.184 25.4204 707.312 29.4567 706.236 35.0123C704.717 42.7746 704.706 42.6748 697.365 43.4399C695.813 43.5952 694.393 45.1698 692.93 46.1013" stroke="#F8D2C5" stroke-width="2" stroke-linecap="round" stroke-linejoin="round"/>
<path d="M722.87 101.579C723.697 103.121 724.631 104.603 725.664 106.015C734.68 116.583 743.85 127.084 752.744 137.696C754.706 140.058 755.882 143.129 757.179 145.968C761.093 154.263 760.129 162.136 754.396 169.255C747.11 178.248 748.341 182.739 754.85 189.914C764.376 200.426 770.375 212.857 770.497 227.494C770.497 231.009 772.752 235.346 776.5 236" stroke="#F8D2C5" stroke-width="2" stroke-linecap="round" stroke-linejoin="round"/>
<path d="M722.869 20.0754C726.435 24.4289 731.268 27.5643 736.697 29.0464C739.436 29.8337 741.842 31.7299 744.814 33.3489C742.253 38.0173 740.223 42.22 741.82 46.6556C743.339 50.8251 745.712 54.684 747.442 58.1438C744.825 69.1551 734.645 68.5785 727.316 72.8145C726.95 77.3388 726.451 81.974 726.207 86.6202C725.841 94.0277 721.427 96.7001 713.942 95.7575C710.139 95.2807 705.426 91.6213 701.744 96.7555C700.813 105.416 706.369 110.351 712.9 114.254C719.143 118.002 722.559 115.429 723.989 106.58" stroke="#F8D2C5" stroke-width="2" stroke-linecap="round" stroke-linejoin="round"/>
<path d="M835 255.5C838.138 256.054 844.493 257.312 847.62 257.944C856.99 259.841 859.33 267.37 860.206 275.132C861.038 282.573 860.317 290.169 854.795 296.201C852.655 298.519 846.899 302 843.5 303C848.5 294 847.587 288.794 846.899 282.385C846.001 274.057 837.631 269.002 831 264.5" stroke="#F8D2C5" stroke-width="2" stroke-linecap="round" stroke-linejoin="round"/>
<path d="M756.001 263.377C754.742 263.861 753.025 264.887 751.701 265.141C742.463 265.939 733.204 266.538 723.978 267.459C721.528 267.714 719.154 268.856 716.759 269.61C715.329 270.064 713.898 270.541 712.446 271.029C711.237 262.158 716.127 257.989 723.989 259.53C730.223 260.642 736.518 261.383 742.84 261.748C744.637 261.881 746.533 260.783 749.66 259.885C754.539 262.435 760.128 262.995 766.172 265.346C771.828 267.712 777.81 269.208 783.914 269.781C794.593 270.48 805.338 270.059 816.072 269.903C818.037 269.863 819.954 269.288 821.616 268.24C824.943 266.089 827.959 266.505 831.097 264.11" stroke="#F8D2C5" stroke-width="2" stroke-linecap="round" stroke-linejoin="round"/>
<path d="M800.5 245.5C789.822 238.736 789.108 239.836 776.5 236.265C777.864 225.11 775.763 212.723 769.11 202.888C775.264 203.664 778.18 208.665 782.039 212.025C789.225 218.279 795.601 225.465 802.742 231.774C806.346 234.957 810.604 237.84 815.96 237.374C817.311 237.283 818.627 236.905 819.819 236.265C828.691 231.12 838.449 231.941 849.227 231.83C849.427 238.982 842.873 242.919 843.139 249.572C839.491 247.077 836.974 244.027 838.382 240.778C839.691 237.751 843.272 236.343 847.009 237.906" stroke="#F8D2C5" stroke-width="2" stroke-linecap="round" stroke-linejoin="round"/>
<path d="M827.106 268.468C833.46 271.473 839.182 275.243 841.522 282.34C843.5 288.058 843.152 294.324 840.552 299.788C837.953 305.252 833.312 309.475 827.627 311.548C822.283 313.633 816.272 314.321 810.495 314.875C805.195 315.43 799.75 314.587 794.438 315.097C787.009 315.807 779.102 315.906 772.405 318.701C766.25 321.273 761.194 319.211 755.616 318.934C752.855 318.789 749.639 318.435 747.399 319.621C744.327 321.262 743 329.324 750.116 329.324C767 330.5 1273.5 329.324 1445.5 329.324" stroke="#F8D2C5" stroke-width="2" stroke-linecap="round" stroke-linejoin="round"/>
<path d="M666.315 68.3124C670.873 76.3075 680.176 77.2722 688.027 82.728C684.191 84.6464 681.119 86.3097 677.948 87.7402C669.276 91.6657 662.046 97.0216 659.174 106.591C658.841 107.7 659.473 109.153 659.662 110.45" stroke="#F8D2C5" stroke-width="2" stroke-linecap="round" stroke-linejoin="round"/>
<path d="M664.097 62.7678C666.193 73.1359 669.232 83.5817 661.88 93.2513C659.329 96.578 657.267 100.637 654.029 103.109C643.417 111.182 643.394 121.395 646.932 132.617C648.695 138.162 650.946 143.628 652.377 149.25C653.807 154.873 654.228 160.55 649.05 164.664C647.242 166.106 644.681 166.594 642.463 167.525" stroke="#F8D2C5" stroke-width="2" stroke-linecap="round" stroke-linejoin="round"/>
<path d="M847.066 238L851.573 236.926C853.582 236.448 855.765 237.228 856.475 239.167C856.993 240.581 857.275 242.078 857.302 243.599C857.349 246.27 856.609 248.895 855.172 251.147C853.586 253.719 849.5 257.5 845 257.5" stroke="#F8D2C5" stroke-width="2" stroke-linecap="round" stroke-linejoin="round"/>
<path d="M772.215 249.617C773.512 250.537 774.743 251.557 776.107 252.367C779.855 254.584 783.226 254.706 786.708 251.358C789.258 248.907 798.04 247.529 801 245.5" stroke="#F8D2C5" stroke-width="2" stroke-linecap="round" stroke-linejoin="round"/>
<path d="M801 245.5C808.219 243.16 816.571 240.59 824.222 240.745C824.61 247.133 820.751 248.031 817.68 249.617C816.571 250.193 814.109 250.934 813 251.5" stroke="#F8D2C5" stroke-width="2" stroke-linecap="round" stroke-linejoin="round"/>
<path d="M824 256.392C818.744 256.392 815.462 251.402 813.81 251.468C811.592 251.568 809.374 253.021 807.156 253.897C807.345 254.728 807.533 255.56 807.733 256.392H824ZM824 256.392C825.899 256.392 827.843 249.823 829.888 244.298C830.681 242.153 833.403 241.973 834.261 244.093C837.584 252.295 834.883 259.63 831 264.5" stroke="#F8D2C5" stroke-width="2" stroke-linecap="round" stroke-linejoin="round"/>
<path d="M776.65 235.755C774.433 247.876 767.752 260.074 755 263.5" stroke="#F8D2C5" stroke-width="2" stroke-linecap="round" stroke-linejoin="round"/>
<path d="M660.5 315.5C629 315.5 585 315.5 556 315.5C431.925 315.5 509.52 262.839 533 279C571.5 305.5 448.5 326.512 333.5 326.512C306.831 326.512 36.326 326.744 -1 326.512" stroke="#F8D2C5" stroke-width="2"/>
</svg>
