<svg width="40" height="40" viewBox="0 0 40 40" fill="none" xmlns="http://www.w3.org/2000/svg">
<path fill-rule="evenodd" clip-rule="evenodd" d="M20 0C14.5675 0 13.8875 0.025 11.755 0.12C9.625 0.22 8.175 0.555 6.9 1.05C5.585 1.56 4.4675 2.245 3.3575 3.3575C2.245 4.4675 1.5575 5.5825 1.05 6.9C0.555 8.175 0.2175 9.625 0.12 11.755C0.02 13.8875 0 14.5675 0 20C0 25.4325 0.025 26.1125 0.12 28.245C0.22 30.375 0.555 31.8275 1.05 33.1C1.56 34.415 2.245 35.5325 3.3575 36.6425C4.4675 37.755 5.5825 38.4425 6.9 38.95C8.175 39.445 9.625 39.7825 11.755 39.88C13.8875 39.98 14.5675 40 20 40C25.4325 40 26.1125 39.975 28.245 39.88C30.375 39.78 31.8275 39.445 33.1 38.95C34.415 38.44 35.5325 37.755 36.6425 36.6425C37.755 35.5325 38.4425 34.4175 38.95 33.1C39.445 31.825 39.7825 30.375 39.88 28.245C39.98 26.1125 40 25.4325 40 20C40 14.5675 39.975 13.8875 39.88 11.755C39.78 9.625 39.445 8.1725 38.95 6.9C38.44 5.585 37.755 4.4675 36.6425 3.3575C35.5325 2.245 34.4175 1.5575 33.1 1.05C31.825 0.555 30.375 0.2175 28.245 0.12C26.1125 0.02 25.4325 0 20 0ZM20 3.6C25.34 3.6 25.975 3.625 28.0825 3.72C30.0325 3.81 31.09 4.135 31.795 4.41C32.73 4.7725 33.395 5.205 34.095 5.905C34.795 6.605 35.2275 7.27 35.59 8.205C35.865 8.91 36.19 9.9675 36.28 11.9175C36.375 14.0275 36.3975 14.66 36.3975 20C36.3975 25.34 36.3725 25.975 36.2725 28.0825C36.1725 30.0325 35.8475 31.09 35.5725 31.795C35.1975 32.73 34.7725 33.395 34.0725 34.095C33.3725 34.795 32.6975 35.2275 31.7725 35.59C31.0725 35.865 29.9975 36.19 28.0475 36.28C25.9225 36.375 25.2975 36.3975 19.9475 36.3975C14.5975 36.3975 13.9725 36.3725 11.8475 36.2725C9.8975 36.1725 8.8225 35.8475 8.1225 35.5725C7.1725 35.1975 6.5225 34.7725 5.8225 34.0725C5.1225 33.3725 4.6725 32.6975 4.3225 31.7725C4.0475 31.0725 3.7225 29.9975 3.6225 28.0475C3.5475 25.9475 3.5225 25.2975 3.5225 19.9725C3.5225 14.6475 3.5475 13.9975 3.6225 11.8725C3.7225 9.9225 4.0475 8.8475 4.3225 8.1475C4.6725 7.1975 5.1225 6.5475 5.8225 5.8475C6.5225 5.1475 7.1725 4.6975 8.1225 4.3475C8.8225 4.0725 9.8725 3.7475 11.8225 3.6475C13.9475 3.5725 14.5725 3.5475 19.9225 3.5475L20 3.6ZM20 9.73C14.325 9.73 9.73 14.33 9.73 20C9.73 25.675 14.33 30.27 20 30.27C25.675 30.27 30.27 25.67 30.27 20C30.27 14.325 25.67 9.73 20 9.73ZM20 26.6675C16.3175 26.6675 13.3325 23.6825 13.3325 20C13.3325 16.3175 16.3175 13.3325 20 13.3325C23.6825 13.3325 26.6675 16.3175 26.6675 20C26.6675 23.6825 23.6825 26.6675 20 26.6675ZM33.075 9.325C33.075 10.65 32 11.725 30.675 11.725C29.35 11.725 28.275 10.65 28.275 9.325C28.275 8 29.35 6.925 30.675 6.925C32 6.925 33.075 8 33.075 9.325Z" fill="#E0EFF6"/>
</svg>
