<svg width="340" height="405" viewBox="0 0 340 405" fill="none" xmlns="http://www.w3.org/2000/svg">
<path d="M238.881 296.262C236.183 286.966 229.975 278.627 231.294 268.197C231.703 265.017 231.908 261.817 232.31 258.637C232.838 254.474 230.463 252.079 226.036 252.732C220.675 253.476 215.276 253.916 209.866 254.052C202.363 254.255 194.857 253.796 187.434 252.68C174.035 250.753 161.414 246.432 149.169 240.837C145.222 239.161 141.364 237.282 137.611 235.21C134.708 233.501 132.135 231.462 130.894 228.018C130.446 226.778 129.964 225.234 128.308 224.06C124.957 227.002 124.053 231.126 123.822 235.21C123.413 242.328 126.83 247.421 132.933 251.103C137.789 254.025 143.218 254.824 148.477 256.315C167.609 261.731 187.137 265.663 205.874 272.445C211.198 274.365 215.539 277.347 218.746 282.038C220.962 285.284 223.067 288.682 225.706 291.565C232.053 298.472 232.798 306.396 229.849 314.656C226.697 323.447 225.222 332.752 225.502 342.088C225.871 354.425 223.186 366.063 219.808 377.714C217.472 385.769 215.645 393.977 215.407 402.586C212.834 402.751 210.189 403.068 207.543 403.074C103.191 403.49 70.4999 342.088 118 342.088C165.5 342.088 186.5 374 111.5 374C36.5 374 1 392.5 1 392.5" stroke="#F8D2C5" stroke-width="2" stroke-linecap="round" stroke-linejoin="round"/>
<path d="M212.162 119.754C203.07 120.671 195.233 123.884 189.73 131.63C182.051 142.416 176.945 154.14 176.931 167.592C176.903 172.822 178.368 177.951 181.154 182.377C187.322 179.584 193.873 177.727 200.59 176.868C201.465 176.749 202.353 176.749 203.229 176.868C208.672 177.594 209.998 180.589 206.844 185.089C205.945 186.369 204.952 187.582 203.875 188.717C199.02 193.791 192.811 193.995 187.382 189.377C184.974 187.261 182.766 184.929 180.784 182.41C169.296 187.3 158.541 193.759 148.826 201.602C143.894 205.658 139.263 210.068 134.972 214.797C131.488 218.524 131.376 222.298 134.972 226.012C139.023 230.175 144.208 232.564 149.486 234.536C169.575 242.064 190.535 245.389 211.812 247.157C218.938 247.836 226.095 248.147 233.254 248.087C235.714 248.041 236.618 248.998 236.942 251.386C237.601 256.143 237.153 260.873 236.81 265.577C236.308 272.445 236.711 279.142 238.855 285.706C239.522 287.536 240.056 289.413 240.451 291.32C240.663 292.587 240.953 294.118 240.148 295.246C237.878 298.432 237.509 302.213 236.552 305.802" stroke="#F8D2C5" stroke-width="2" stroke-linecap="round" stroke-linejoin="round"/>
<path d="M260.982 60.074C261.055 60.8921 260.844 61.6508 261.642 62.4161C266.748 67.4829 267.731 74.2321 268.899 80.8889C269.612 84.9265 270.423 89.2082 270.12 93.0677C269.631 99.4342 270.291 106.296 265.739 111.989C264.261 113.718 262.552 115.234 260.659 116.495C259.63 117.247 258.429 117.768 257.36 118.474C253.784 120.968 253.402 122.776 256.041 126.035C260.058 130.895 263.078 136.5 264.927 142.529C267.313 150.102 267.729 158.158 266.135 165.936C264.875 171.782 266.57 176.532 269.585 181.11C272.6 185.689 276.222 190.188 277.159 195.968C278.096 201.747 279.303 207.599 280.075 213.458C281.546 224.594 283.994 235.572 285.142 246.761C285.34 248.635 285.333 249.513 283.46 250.496C280.905 251.867 278.065 252.623 275.167 252.706C272.745 252.778 270.595 252.25 269.572 249.737C268.642 247.474 269.407 245.376 270.588 243.496C271.492 242.057 273.227 241.246 273.966 239.59C268.279 235.994 246.956 240.982 242.747 246.9C243.882 249.348 245.808 249.084 248.124 248.826C252.801 248.305 257.162 246.062 261.978 246.445C262.434 246.484 262.968 246.22 263.608 247.302C264.069 256.719 262.815 266.142 259.907 275.111C257.033 283.838 255.592 292.972 255.638 302.16C255.698 310.69 255.704 319.274 253.079 327.567C250.987 334.164 248.078 340.425 245.214 346.699C241.559 354.748 237.647 362.724 235.582 371.407C233.821 378.848 233.603 386.152 237.225 393.178C238.03 394.722 238.663 396.345 237.885 398.12" stroke="#F8D2C5" stroke-width="2" stroke-linecap="round" stroke-linejoin="round"/>
<path d="M239.211 399.485C238.643 401.498 237.35 402.058 235.252 402.217C231.393 402.507 227.573 403.213 223.7 402.448C222.751 402.337 221.837 402.022 221.022 401.524C219.993 400.811 219.3 400.204 219.386 398.826C219.485 397.183 220.804 397.546 221.721 397.17C227.448 394.834 233.115 396.239 238.129 398.667C243.192 401.143 248.749 402.442 254.385 402.467C278.921 402.75 316.456 376.071 338.5 387.5" stroke="#F8D2C5" stroke-width="2" stroke-linecap="round" stroke-linejoin="round"/>
<path d="M166.639 36.983C170.103 38.6389 173.626 40.1629 176.898 42.2081C177.647 42.6522 178.316 43.2187 178.877 43.8839C184.452 50.3955 190.509 56.2739 198.967 59.1767C201.381 60.0014 203.868 60.2455 206.283 60.9844C211.488 62.5876 213.362 64.6592 213.54 69.9701C213.606 72.1737 213.897 74.3772 213.837 76.5675C213.494 89.2346 230.179 96.4918 240.227 90.0791C243.684 87.8821 245.3 84.4977 245.854 80.5326C246.231 77.854 244.581 75.0501 241.236 74.2848C237.871 73.4314 234.456 72.788 231.01 72.3584C228.187 72.0747 225.963 70.7354 223.753 69.2774C221.543 67.8194 220.679 65.4905 220.712 62.7129C220.758 58.8534 221.16 54.9676 219.821 51.1542C219.01 48.8451 217.637 46.8329 216.819 44.5568C215.262 40.2487 214.226 35.835 216.159 31.362C217.479 28.281 217.479 24.9691 218.02 21.7693C218.558 18.7576 219.599 15.8581 221.101 13.1926C224.235 7.38691 230.37 7.20218 234.566 8.97689C241.678 11.9919 245.782 17.5535 246.442 25.3913C246.618 26.8522 246.959 28.2885 247.458 29.673C247.886 30.9925 248.018 32.1932 250.156 31.1179C251.805 30.2932 252.729 32.1009 253.046 33.6381C253.804 37.3062 251.383 41.1789 247.827 42.9471C246.283 43.7124 245.122 45.2627 243.869 46.5031C239.25 50.9497 234.17 53.2786 227.685 50.831C225.75 50.2133 223.762 49.7717 221.747 49.5115C221.177 49.5179 220.613 49.6228 220.078 49.8216" stroke="#F8D2C5" stroke-width="2" stroke-linecap="round" stroke-linejoin="round"/>
<path d="M210.512 26.4271C209.635 26.4271 208.599 26.1236 207.873 26.4798C200.985 29.9369 193.788 28.2216 186.761 27.6806C177.307 26.9482 167.906 25.3847 158.392 26.7305C156.202 27.0005 154.087 27.7048 152.171 28.8021C148.806 30.7814 148.087 35.2082 149.796 39.6351C151.617 44.3589 154.467 48.502 157.456 52.4605C162.621 59.302 168.671 65.3915 174.609 71.593C177.908 75.0831 181.642 78.1905 185.112 81.542C186.94 83.3035 188.299 82.8615 189.4 80.8822C190.66 78.6061 191.881 76.264 193.022 73.9549C193.252 73.4813 193.577 73.0607 193.978 72.7199C194.379 72.3792 194.847 72.1257 195.351 71.9757" stroke="#F8D2C5" stroke-width="2" stroke-linecap="round" stroke-linejoin="round"/>
<path d="M270.548 93.3646C272.409 93.4702 272.686 91.7614 273.511 90.7256C281.771 80.2951 290.09 69.9042 298.231 59.3747C303.991 51.9262 309.447 44.2666 313.405 35.6239C314.665 32.8794 315.853 30.0689 315.998 27.0473C316.176 23.3527 315.497 21.3405 310.766 21.1096C299.014 20.5551 287.242 21.6657 275.8 24.4083C271.914 25.3319 267.962 26.2556 263.925 25.3979C261.009 24.7712 260.388 26.7174 260.355 28.6966C260.334 31.569 260.554 34.438 261.015 37.2733C261.371 39.6022 261.075 40.4994 258.337 40.7171C255.223 40.9613 252.841 43.4419 250.868 45.6454C249.697 46.9286 248.621 48.2957 247.649 49.7358C246.263 51.8404 245.247 53.4832 246.329 56.1287C246.989 57.6857 246.105 59.4275 245.162 61.0636C243.143 64.4943 243.004 67.3905 246.112 69.9372C249.219 72.4838 250.189 75.8748 250.974 79.675C253.916 79.0152 254.055 76.8051 254.015 74.5554C253.963 71.2566 252.287 68.3274 252.293 64.9891C252.293 63.0099 252.392 61.2285 254.042 60.074C256.991 58.0156 258.812 55.0929 260.639 52.1571" stroke="#F8D2C5" stroke-width="2" stroke-linecap="round" stroke-linejoin="round"/>
<path d="M258.673 40.2817C256.344 35.1951 254.431 30.2734 256.885 24.3951C258.766 19.9022 256.265 15.5809 253.666 11.9589C247.788 3.75174 239.283 -0.285887 227.995 1.36347C227.532 1.35975 227.076 1.48051 226.676 1.71313C221.596 6.27855 213.481 7.35393 211.403 15.515C210.466 19.2095 209.575 22.5082 210.69 26.4667C211.95 30.9331 211.033 35.5052 209.305 39.9914C207.866 43.7256 205.96 47.4333 205.61 51.4973C205.142 56.9996 209.628 60.615 216.12 58.3982" stroke="#F8D2C5" stroke-width="2" stroke-linecap="round" stroke-linejoin="round"/>
<path d="M260.653 61.6969C259.943 62.1626 259.363 62.801 258.967 63.5523C258.571 64.3035 258.372 65.1429 258.39 65.9919C258.113 75.8286 259.379 85.4675 263.008 94.6709C264.611 98.7481 265.95 99.5662 268.906 99.2891" stroke="#F8D2C5" stroke-width="2" stroke-linecap="round" stroke-linejoin="round"/>
<path d="M197.647 67.3311C195.932 69.5875 196.057 72.2924 195.576 74.905C194.696 80.0212 192.448 84.8039 189.071 88.7464C188.134 89.8284 186.432 90.9038 187.85 92.3156C189.123 93.6021 190.351 95.6143 193.128 94.1959C194.296 93.5955 196.348 92.3816 197.997 94.0375C196.941 97.9432 195.53 101.763 195.668 105.913C195.846 111.151 198.452 114.76 202.925 117.129C204.588 117.993 206.527 118.323 207.867 119.768" stroke="#F8D2C5" stroke-width="2" stroke-linecap="round" stroke-linejoin="round"/>
<path d="M207.873 40.9414C203.776 40.0442 199.712 40.8821 195.675 41.3241C190.733 41.8519 185.779 42.4193 180.824 42.2873C180.147 42.3592 179.482 42.5166 178.845 42.7557" stroke="#F8D2C5" stroke-width="2" stroke-linecap="round" stroke-linejoin="round"/>
<path d="M284.733 39.9254C279.772 48.6868 272.033 54.288 263.285 58.7149C262.755 58.9018 262.202 59.0171 261.642 59.058" stroke="#F8D2C5" stroke-width="2" stroke-linecap="round" stroke-linejoin="round"/>
<path d="M299.577 29.3695C295.87 33.0416 291.648 36.1532 287.042 38.6059C285.914 39.2195 284.799 39.1865 283.407 39.0941C277.469 38.6917 271.578 37.5174 265.594 38.3091C264.26 38.554 262.941 38.8734 261.642 39.2657" stroke="#F8D2C5" stroke-width="2" stroke-linecap="round" stroke-linejoin="round"/>
<path d="M259.992 41.2449C261.233 43.2703 261.477 45.6388 261.549 47.8423C261.655 51.24 263.133 54.5783 261.747 58.1079C261.246 59.3878 260.896 59.8497 259.663 59.7111" stroke="#F8D2C5" stroke-width="2" stroke-linecap="round" stroke-linejoin="round"/>
<path d="M218.099 48.5021C211.825 50.3428 213.013 51.7282 214.8 55.7592C214.994 56.4031 215.111 57.0674 215.15 57.7385" stroke="#F8D2C5" stroke-width="2" stroke-linecap="round" stroke-linejoin="round"/>
</svg>
