<svg width="24" height="8" viewBox="0 0 24 8" fill="none" xmlns="http://www.w3.org/2000/svg">
<mask id="path-1-inside-1" fill="white">
<path fill-rule="evenodd" clip-rule="evenodd" d="M20.6716 0.464469L23.8536 3.64645C24.0488 3.84171 24.0488 4.15829 23.8536 4.35356L20.6716 7.53554C20.4763 7.7308 20.1597 7.7308 19.9645 7.53554C19.7692 7.34027 19.7692 7.02369 19.9645 6.82843L22.2929 4.5L3.656e-07 4.5L3.67585e-07 3.5L22.2929 3.5L19.9645 1.17158C19.7692 0.976313 19.7692 0.659731 19.9645 0.464469C20.1597 0.269206 20.4763 0.269206 20.6716 0.464469Z"/>
</mask>
<path fill-rule="evenodd" clip-rule="evenodd" d="M20.6716 0.464469L23.8536 3.64645C24.0488 3.84171 24.0488 4.15829 23.8536 4.35356L20.6716 7.53554C20.4763 7.7308 20.1597 7.7308 19.9645 7.53554C19.7692 7.34027 19.7692 7.02369 19.9645 6.82843L22.2929 4.5L3.656e-07 4.5L3.67585e-07 3.5L22.2929 3.5L19.9645 1.17158C19.7692 0.976313 19.7692 0.659731 19.9645 0.464469C20.1597 0.269206 20.4763 0.269206 20.6716 0.464469Z" fill="#F8D2C5"/>
<path d="M23.8536 3.64645L24.5607 2.93934L24.5607 2.93934L23.8536 3.64645ZM20.6716 0.464469L21.3787 -0.242638L21.3787 -0.24264L20.6716 0.464469ZM23.8536 4.35356L24.5607 5.06066L24.5607 5.06066L23.8536 4.35356ZM20.6716 7.53554L21.3787 8.24264L21.3787 8.24264L20.6716 7.53554ZM19.9645 6.82843L20.6716 7.53554L20.6716 7.53554L19.9645 6.82843ZM22.2929 4.5L23 5.20711L24.7071 3.5L22.2929 3.5L22.2929 4.5ZM3.656e-07 4.5L-1 4.5L-1 5.5L4.53023e-07 5.5L3.656e-07 4.5ZM3.67585e-07 3.5L2.80162e-07 2.5L-1 2.5L-1 3.5L3.67585e-07 3.5ZM22.2929 3.5L22.2929 4.5L24.7071 4.5L23 2.7929L22.2929 3.5ZM19.9645 1.17158L20.6716 0.464469L20.6716 0.464467L19.9645 1.17158ZM24.5607 2.93934L21.3787 -0.242638L19.9645 1.17158L23.1464 4.35356L24.5607 2.93934ZM24.5607 5.06066C25.1464 4.47487 25.1464 3.52513 24.5607 2.93934L23.1464 4.35355C22.9512 4.15829 22.9512 3.84171 23.1464 3.64645L24.5607 5.06066ZM21.3787 8.24264L24.5607 5.06066L23.1464 3.64645L19.9645 6.82843L21.3787 8.24264ZM19.2574 8.24264C19.8431 8.82843 20.7929 8.82843 21.3787 8.24264L19.9645 6.82843C20.1597 6.63317 20.4763 6.63317 20.6716 6.82843L19.2574 8.24264ZM19.2574 6.12132C18.6716 6.70711 18.6716 7.65686 19.2574 8.24264L20.6716 6.82843C20.8668 7.02369 20.8668 7.34027 20.6716 7.53554L19.2574 6.12132ZM21.5858 3.7929L19.2574 6.12132L20.6716 7.53554L23 5.20711L21.5858 3.7929ZM4.53023e-07 5.5L22.2929 5.5L22.2929 3.5L2.78178e-07 3.5L4.53023e-07 5.5ZM-1 3.5L-1 4.5L1 4.5L1 3.5L-1 3.5ZM22.2929 2.5L2.80162e-07 2.5L4.55007e-07 4.5L22.2929 4.5L22.2929 2.5ZM19.2574 1.87868L21.5858 4.20711L23 2.7929L20.6716 0.464469L19.2574 1.87868ZM19.2574 -0.242639C18.6716 0.343147 18.6716 1.2929 19.2574 1.87868L20.6716 0.464467C20.8668 0.65973 20.8668 0.976314 20.6716 1.17158L19.2574 -0.242639ZM21.3787 -0.24264C20.7929 -0.828424 19.8431 -0.828424 19.2574 -0.242639L20.6716 1.17158C20.4763 1.36684 20.1597 1.36684 19.9645 1.17158L21.3787 -0.24264Z" fill="#F8D2C5" mask="url(#path-1-inside-1)"/>
</svg>
