<svg width="24" height="24" viewBox="0 0 24 24" fill="none" xmlns="http://www.w3.org/2000/svg">
<path fill-rule="evenodd" clip-rule="evenodd" d="M2.10049 0.7072C1.70996 0.316676 1.0768 0.316676 0.686272 0.7072C0.295747 1.09772 0.295747 1.73089 0.686272 2.12141L10.7719 12.2071L0.686204 22.2928C0.295679 22.6833 0.29568 23.3165 0.686204 23.707C1.07673 24.0975 1.70989 24.0975 2.10042 23.707L12.1861 13.6213L21.8995 23.3346C22.29 23.7251 22.9232 23.7251 23.3137 23.3346C23.7042 22.9441 23.7042 22.3109 23.3137 21.9204L13.6004 12.2071L23.3136 2.49381C23.7041 2.10329 23.7041 1.47012 23.3136 1.0796C22.9231 0.689075 22.2899 0.689075 21.8994 1.0796L12.1861 10.7929L2.10049 0.7072Z" fill="white"/>
</svg>
