<svg width="1440" height="334" viewBox="0 0 1440 334" fill="none" xmlns="http://www.w3.org/2000/svg">
<path d="M440.73 231.996C435.782 233.147 433.479 259.294 433.479 259.294C433.479 259.294 430.851 277.781 430.92 287.873C431.033 294.771 427.768 300.359 423.702 305.933C423.316 306.475 422.95 307.032 422.601 307.595C420.537 310.919 420.008 315.961 423.72 317.199C424.797 317.558 425.952 317.694 427.089 317.799C434.241 318.416 441.2 320.446 447.563 323.771C459.003 329.785 472.246 332.539 485 333C518.5 333 530.5 333 548 333C601 333 1370.5 333 1440.5 333" stroke="black" stroke-width="2" stroke-linecap="round" stroke-linejoin="round"/>
<path d="M422.388 16.2844C426.935 14.2881 431.32 11.4729 436.037 10.5089C442.495 9.20372 443.835 12.7184 444.295 17.1118C445.763 31.0768 443.442 44.5812 440.661 58.06C428.778 75.0277 414.292 83.0125 422.388 91.6629C428.471 96.3037 433.077 98.7435 436.037 105.312C439.451 113.012 438.588 124.427 428.778 127.493C421.953 129.625 422.388 137.73 428.778 139.666C440.252 140.997 448.501 150.517 450.233 160.882C451.495 168.424 450.233 175.385 447.477 182.21C444.568 189.401 439.151 192.387 431.346 191.594C422.943 190.741 414.582 189.521 406.171 188.71C403.612 188.454 400.208 191.047 399.346 192.924C398.484 194.801 396.796 199.697 410.052 200.483C420.844 201.123 431.653 201.762 442.47 201.754C454.231 201.754 474.942 203.905 478.956 216.64C473.574 220.905 472.294 235.408 471.015 240.526" stroke="black" stroke-width="2" stroke-linecap="round" stroke-linejoin="round"/>
<path d="M472.721 307.92C477.345 314.864 487.035 318.985 494.508 320.751C495.703 321.032 497.17 320.162 499.473 319.59C497.409 316.741 496.291 314.327 494.44 312.766C478.231 299.304 475.459 281.201 486.293 263.167C495.114 248.503 493.357 240.919 504.208 227.739C507.734 223.347 510.594 218.461 512.696 213.236C515.579 206.207 513.609 200.235 505.103 197.71C497.997 195.603 493.809 193.718 486.37 193.18C476.022 192.438 474.572 191.738 464.19 191.738C459.626 191.738 440.133 191.226 434.759 191.738" stroke="black" stroke-width="2" stroke-linecap="round" stroke-linejoin="round"/>
<path d="M253.5 312C246.19 312 11 312 0 312" stroke="black" stroke-width="2" stroke-linecap="round" stroke-linejoin="round"/>
<path d="M308.075 224.011C301.685 227.244 295.279 230.443 288.027 231.262C276.195 232.602 265.711 230.665 258.075 220.24C255.601 216.828 252.539 214.03 250.79 210.003C249.152 206.216 244.153 204.706 239.828 205.678C228.797 208.169 218.858 208 208.394 224.898C197.363 242.711 195.376 261.666 202.942 281.134C207.976 294.075 216.999 305.274 230 310C234.939 311.8 249 312 256 312" stroke="black" stroke-width="2" stroke-linecap="round" stroke-linejoin="round"/>
<path d="M340.919 301.522C346.038 305.89 372.057 308.347 369.498 312.186" stroke="black" stroke-width="2" stroke-linecap="round" stroke-linejoin="round"/>
<path d="M254.757 215.36C255.184 217.348 256.029 222.68 256.967 224.437C261.412 232.593 269.175 236.466 277.347 239.878C285.238 243.171 292.114 247.837 297.028 255.166C303.204 264.379 303.153 274.104 299.007 283.718C293.888 295.602 278.661 306.982 273.107 309.371C267.554 311.759 256.875 312 252 312" stroke="black" stroke-width="2" stroke-linecap="round" stroke-linejoin="round"/>
<path d="M337.507 281.594C335.126 267.041 336.653 252.683 340.151 238.53C341.712 232.286 343.563 226.186 348.051 220.923C354.526 213.245 357.529 211.709 366.085 209.815M460.172 255.183C460.496 257.145 459.378 259.738 458.142 261.504C450.89 271.878 446.019 283.36 442.078 295.278C440.756 299.294 442.178 303.619 443.289 307.494C447.555 312.501 448.408 313.039 454.806 316.878C457.365 318.157 468.456 320.717 458.142 327.541" stroke="black" stroke-width="2" stroke-linecap="round" stroke-linejoin="round"/>
<path d="M365.658 43.5831C362.16 46.9016 359.482 50.5698 358.236 55.5263C357.511 58.3585 355.515 60.696 352.077 62.1377C343.051 65.8998 334.384 70.5064 325.563 74.7548C319.591 77.6212 313.62 80.4961 307.648 83.2857C300.823 86.4336 293.146 83.4478 289.537 76.0515C291.022 76.0515 292.386 75.7615 293.564 76.1112C296.319 76.9217 298.913 78.4828 301.702 78.9093C304.492 79.3359 307.844 79.7624 309.67 75.8297C300.499 73.7823 298.58 66.4458 297.548 58.9727C296.754 53.2314 297.053 47.3281 297.053 41.5015C297.053 40.0257 297.735 38.5583 298.136 36.9375L303.255 38.5413C304.185 36.3233 305.643 34.2759 305.814 32.109C306.036 28.9867 307.52 28.0228 310.216 27.8436C314.908 27.545 319.6 27.2806 324.292 26.9905C326.143 26.8796 328.165 27.1441 329.794 26.4701C332.217 25.472 335.459 24.8663 335.766 21.4455C336.039 18.2037 334.23 15.9004 331.552 14.1942C324.915 9.92879 317.561 8.02641 309.798 7.36953C303.076 6.80649 296.396 6.51645 290.177 9.92879C276.911 17.1886 271.759 35.9479 284.205 48.3177C286.398 50.4845 288.044 53.6409 291.883 53.4362" stroke="black" stroke-width="2" stroke-linecap="round" stroke-linejoin="round"/>
<path d="M365.232 72.1614C360.719 72.1017 357.426 74.3282 354.073 77.2031C343.882 85.9387 333.5 94.4696 322.927 102.796C320.308 104.852 316.742 105.722 313.62 107.155C311.148 108.168 308.735 109.322 306.394 110.61C302.735 112.845 295.594 111.378 292.344 107.112C289.862 103.862 287.831 100.288 285.605 96.8326C279.633 100.603 277.714 103.154 277.023 107.854C280.222 109.373 283.762 110.252 286.227 112.376C294.084 119.141 302.581 117.716 311.018 114.722C317.416 112.444 323.456 109.168 330.076 106.191C336.505 120.344 330.045 124.362 330.716 137.73C331.049 144.495 331.893 151.763 327.696 157.351C327.284 158.156 325.137 163.322 319.592 166.308" stroke="black" stroke-width="2" stroke-linecap="round" stroke-linejoin="round"/>
<path d="M366.938 70.8816C371.45 70.5915 374.615 67.8958 377.61 64.91C383.061 59.5099 387.574 53.581 388.7 45.707C389.135 42.6615 388.077 40.4861 384.648 37.978C381.525 39.5904 378.053 41.3306 374.658 43.1904C374.197 43.4378 373.967 44.2567 373.805 44.8539C371.502 52.9582 369.36 61.0625 366.929 69.1498C363.634 80.0012 365.98 93.077 369.505 103.29C373.959 116.215 378.113 129.25 382.822 142.072C386.234 151.276 383.803 159.355 379.316 167.263C373.822 176.954 368.311 186.645 366.989 197.974C366.528 201.933 366.392 205.934 366.136 209.918" stroke="black" stroke-width="2" stroke-linecap="round" stroke-linejoin="round"/>
<path d="M319.591 193.3C319.31 194.289 319.276 195.484 318.738 196.251C314.207 202.4 310.915 209.371 309.047 216.777C308.471 219.293 308.318 221.888 308.595 224.454C309.619 237.251 311.078 250.047 311.82 262.843C312.093 267.484 310.873 272.227 310.233 276.902C309.747 280.485 310.514 281.765 314.089 282.021C317.006 282.191 317.902 283.906 318.354 286.337C319.404 291.917 317.749 296.736 314.558 301.3C312.545 304.175 312.042 307.374 314.055 310.684C314.75 311.948 315.828 312.959 317.134 313.573C318.44 314.186 319.906 314.369 321.323 314.097C327.036 313.409 332.828 313.824 338.385 315.317C345.901 317.125 353.493 318.934 361.418 317.176C364.737 316.443 367.722 315.573 369.505 312.425" stroke="black" stroke-width="2" stroke-linecap="round" stroke-linejoin="round"/>
<path d="M402.341 10.3126C401.292 3.18938 397.027 -0.376547 390.006 1.49171C379.206 4.37514 368.568 7.96666 358.058 11.8055C356.351 12.4198 355.003 15.7638 354.713 18.0074C354.099 22.7762 354.236 27.6559 354.159 32.5099C354.108 35.5469 360.199 41.8427 363.099 41.8939C364.933 41.8939 365.855 39.6929 365.258 37.1934C364.447 33.7811 363.807 30.3687 363.099 26.9564" stroke="black" stroke-width="2" stroke-linecap="round" stroke-linejoin="round"/>
<path d="M331.108 25.2418C330.502 17.82 325.137 14.5441 319.165 12.565C312.116 10.3267 304.583 10.0962 297.411 11.8996C288.735 13.8958 279.693 26.2655 285.076 37.5945C286.713 41.0069 288.565 44.4192 290.143 47.8315C290.709 49.3516 291.151 50.915 291.465 52.5064" stroke="black" stroke-width="2" stroke-linecap="round" stroke-linejoin="round"/>
<path d="M471.015 240.219C470.588 244.34 470.29 248.486 469.709 252.581C468.37 261.965 466.758 271.349 465.538 280.733C465.051 284.344 463.555 287.744 461.221 290.543C456.427 296.591 456.563 298.118 462.074 303.757C462.424 304.124 472.38 307.511 472.721 307.92" stroke="black" stroke-width="2" stroke-linecap="round" stroke-linejoin="round"/>
<path d="M348.17 223.465C347.957 221.827 350.09 212.784 350.371 211.223C351.796 202.24 353.954 193.351 354.807 184.325C355.37 178.447 354.534 172.331 353.57 166.41C352.956 162.623 349.928 159.944 346.029 159.202C339.861 158.024 332.533 156.259 327.943 160.678C320.078 168.244 310.259 169.029 300.798 171.401C298.196 172.049 295.398 171.827 293.12 173.644" stroke="black" stroke-width="2" stroke-linecap="round" stroke-linejoin="round"/>
<path d="M330.682 26.9479C330.763 27.5137 330.763 28.0883 330.682 28.6541C329.129 33.6702 328.839 38.3878 333.241 42.3546C334.094 43.1651 334.546 44.513 334.947 45.2978C334.947 46.0059 335.049 46.4836 334.947 46.5518C330.63 48.9746 330.503 52.9329 330.639 57.241C330.861 63.9889 330.494 64.3899 323.874 64.4325C319.182 64.4325 314.32 64.5605 309.858 63.4003C307.111 62.6837 304.227 60.0989 302.709 57.5652C300.039 53.1206 296.635 52.677 292.31 53.8287" stroke="black" stroke-width="2" stroke-linecap="round" stroke-linejoin="round"/>
<path d="M348.17 222.305C348.156 224.726 347.999 227.144 347.701 229.547C345.312 242.847 346.763 255.993 348.554 269.233C348.926 272.635 348.926 276.068 348.554 279.47C348.435 280.886 347.283 282.217 346.848 283.164L338.445 282.464" stroke="black" stroke-width="2" stroke-linecap="round" stroke-linejoin="round"/>
<path d="M366.085 209.389C366.256 212.443 371.272 223.158 373.336 225.171C384.427 236.261 397.777 233.745 412.638 234.871C419.079 235.365 425.699 233.386 432.259 232.55C433.965 232.328 438.521 232.781 440.73 232.55" stroke="black" stroke-width="2" stroke-linecap="round" stroke-linejoin="round"/>
<path d="M422.389 17.9905C428.284 22.9981 430.067 29.1659 427.013 36.2977C425.545 39.7101 425.025 42.9347 426.159 46.5859C427.396 50.5528 421.758 65.1235 418.055 66.4117C415.436 67.3245 411.93 66.9747 409.217 66.0363C405.174 64.6287 401.488 62.206 397.649 60.2183" stroke="black" stroke-width="2" stroke-linecap="round" stroke-linejoin="round"/>
<path d="M400.635 32.0664C399.071 37.6115 397.507 43.1565 395.943 48.7016C394.049 55.367 392.138 62.0467 390.21 68.7406C394.987 68.8259 395.405 68.2628 397.222 59.3566" stroke="black" stroke-width="2" stroke-linecap="round" stroke-linejoin="round"/>
<path d="M401.914 10.3127C399.355 11.3023 396.531 11.8994 394.296 13.3838C389.928 16.2843 388.154 23.1943 389.971 28.2275C391.413 32.2029 395.755 33.9773 400.583 31.5375C409.967 26.8199 413.141 28.1763 420.929 16.7791C415.512 12.7525 409.925 9.54494 402.767 10.7393" stroke="black" stroke-width="2" stroke-linecap="round" stroke-linejoin="round"/>
<path d="M284.616 178.797C261.009 176.222 253.052 198.299 254.758 215.915" stroke="black" stroke-width="2" stroke-linecap="round" stroke-linejoin="round"/>
<path d="M284.189 179.104C276.085 179.104 270.966 189.768 270.966 189.768C269.26 193.607 266.829 197.138 266.274 197.991C262.935 203.056 259.836 206.08 255.641 204.012C250.554 201.506 249.977 194.686 251.358 189.186C254.721 175.794 258.3 162.228 260.865 148.461C262.401 140.212 261.616 131.4 261.019 122.928C260.081 109.654 258.409 96.4059 261.608 83.2599C263.578 75.1385 267.912 69.0474 276.904 67.401C280.12 66.7223 283.263 65.7309 286.287 64.4408C291.798 62.2569 293.368 58.964 291.85 53.3507" stroke="black" stroke-width="2" stroke-linecap="round" stroke-linejoin="round"/>
<path d="M379.734 17.1373C376.603 16.9922 373.473 16.668 370.35 16.7789C368.431 16.8387 366.528 17.5638 364.327 18.0671C365.402 21.0103 366.315 23.0833 366.887 25.2501C367.654 28.0994 367.672 30.7867 363.935 31.6397" stroke="black" stroke-width="2" stroke-linecap="round" stroke-linejoin="round"/>
<path d="M382.293 15.0048C382.421 10.9099 383.999 8.94781 388.964 7.55728C388.853 8.78573 389.143 10.1166 388.623 10.6711C387.17 12.3718 385.439 13.814 383.504 14.9365C381.542 15.9431 380.442 16.6939 379.99 19.2617C378.736 26.3167 376.705 33.2181 375.067 40.2049C375.056 40.9312 375.186 41.6527 375.451 42.3291" stroke="black" stroke-width="2" stroke-linecap="round" stroke-linejoin="round"/>
<path d="M319.165 196.712C322.356 203.144 317.331 217.485 309.355 221.452" stroke="black" stroke-width="2" stroke-linecap="round" stroke-linejoin="round"/>
<path d="M402.768 11.1658C404.372 17.6493 402.708 23.9621 401.915 30.3602" stroke="black" stroke-width="2" stroke-linecap="round" stroke-linejoin="round"/>
<path d="M369.071 49.1282C369.822 46.1168 367.262 45.1442 365.659 43.5831" stroke="black" stroke-width="2" stroke-linecap="round" stroke-linejoin="round"/>
</svg>
