<svg width="588" height="525" viewBox="0 0 588 525" fill="none" xmlns="http://www.w3.org/2000/svg">
                <g opacity="0.504511">
                    <path fill-rule="evenodd" clip-rule="evenodd"
                          d="M587.655 350.091C595.798 402.023 398.308 435.896 228.323 412.257C58.3385 388.617 -19.6423 296.302 61.4714 247.113C142.585 197.924 579.511 298.159 587.655 350.091Z"
                          fill="#F2F2F2"/>
                </g>
                <path opacity="0.2" fill-rule="evenodd" clip-rule="evenodd"
                      d="M189.898 26.3912C187.655 24.9441 184.174 25.8685 181.915 26.7242C181.044 27.0543 178.82 28.1094 177.169 29.2967C177.388 28.4742 177.583 27.6445 177.753 26.808C178.453 23.3686 178.936 19.8642 179.169 16.3802C179.23 15.4715 179.152 14.4563 179.073 13.4277L179.073 13.4275C179.046 13.0791 179.019 12.7292 178.998 12.3813C179.088 12.2991 179.149 12.1856 179.175 12.0319C179.184 12.0956 179.19 12.1467 179.194 12.1858C179.201 12.2482 179.204 12.28 179.215 12.2833C179.227 12.2868 179.248 12.2599 179.291 12.2053C179.307 12.1843 179.326 12.1593 179.349 12.1304C181.02 10.0211 182.423 7.64463 182.617 5.03274C182.781 2.81758 180.629 -1.37261 177.573 1.53005C176.206 2.82639 176.555 11.9263 178.607 12.4831C178.057 15.4988 177.366 18.5094 176.501 21.4819C176.371 21.4627 176.239 21.461 176.109 21.4761C176.122 20.7372 176.124 19.9309 176.088 19.6537C175.782 17.2654 173.423 12.4175 169.662 13.3605C166.772 14.0853 168.542 17.0629 169.524 18.366C171.106 20.4641 172.896 21.3721 175.162 22.4625C175.207 22.9135 175.552 23.1756 175.958 23.2606C174.437 28.0611 172.439 32.7433 169.826 37.1663L169.757 36.8854L169.757 36.8853C169.426 35.5433 169.041 33.9784 168.796 33.6499C167.518 31.9302 164.687 29.8304 162.074 30.8494C156.588 32.9923 162.538 39.1421 167.208 39.8093C167.402 40.0359 167.607 40.2181 167.825 40.3225C166.917 41.6577 165.947 42.9651 164.908 44.2389C163.351 46.1548 161.677 48.0646 159.923 49.9633C159.869 48.4787 159.177 45.1702 158.981 44.8148C157.785 42.6563 154.335 40.4363 151.533 41.9712C148.383 43.7018 151.237 46.9684 153.032 48.4465C153.768 49.0525 157.408 51.2729 158.693 51.2823C154.454 55.7598 149.775 60.1609 145.018 64.4029C145.413 62.5046 145.931 57.2771 145.874 56.697C145.581 53.7026 143.254 48.9139 138.664 50.0829C134.211 51.2154 136.178 56.1903 137.7 58.5615C138.623 59.9966 139.898 61.4547 141.437 62.4553C141.714 62.6355 142.077 62.7826 142.438 62.9294L142.438 62.9295C142.874 63.1066 143.31 63.2833 143.594 63.5173C143.847 63.726 143.925 63.9656 144.002 64.2032C144.083 64.4542 144.164 64.7029 144.45 64.9105C141.88 67.193 139.291 69.428 136.739 71.601C135.536 72.6267 134.31 73.6324 133.072 74.6256C132.395 74.3887 131.43 74.7011 131.48 75.5109C131.487 75.6285 131.519 75.73 131.562 75.823C130.624 76.5604 129.68 77.2926 128.729 78.0169C128.751 77.806 128.745 77.5086 128.701 77.098C129.385 77.9206 129.358 76.722 129.336 75.8083C129.329 75.4855 129.322 75.1982 129.348 75.0482C129.449 74.461 129.579 73.8796 129.71 73.299C129.988 72.0588 130.266 70.8225 130.252 69.5428C130.224 66.8263 128.191 62.2734 123.905 63.8929C119.964 65.3793 121.395 69.4049 122.88 71.9284C123.82 73.5253 125.107 74.951 126.451 76.3158C126.691 76.5595 126.957 76.8893 127.221 77.2159L127.221 77.216C127.612 77.7009 127.997 78.1786 128.282 78.3564C124.623 81.1287 120.877 83.8197 117.131 86.5108C115.453 87.7163 113.775 88.9219 112.104 90.1348C112.032 89.8688 111.972 89.6051 111.92 89.3584C112.025 89.458 112.167 89.5044 112.349 89.4953C112.398 89.2913 112.468 89.0203 112.553 88.6948C113.586 84.7214 116.734 72.6191 108.229 74.9681C101.998 76.6941 106.389 87.229 111.034 90.9127C108.213 92.9719 105.418 95.0573 102.689 97.205C100.715 98.7589 98.7982 100.366 96.9547 102.027C97.9094 99.8771 98.8095 97.0944 98.2212 94.8803C97.3646 91.6583 93.3437 88.6174 89.4152 90.4528C84.5177 92.7506 88.2825 95.8843 91.8129 98.8228C93.6156 100.323 95.3572 101.773 95.8532 103.034C89.9927 108.482 84.9884 114.533 81.6429 121.425C78.0044 128.92 74.6249 138.99 76.4855 147.372C76.1432 143.686 77.6193 139.057 78.656 135.806L78.6563 135.805C78.7973 135.363 78.9302 134.946 79.0493 134.561C80.6069 129.518 82.8185 124.612 85.7318 120.02C90.3983 112.665 96.5601 106.42 103.673 100.75C105.292 101.226 107.049 102.108 108.505 102.838C109.398 103.286 110.178 103.677 110.741 103.883C113.461 104.874 118.683 106.294 120.418 103.168C122.124 100.095 117.776 98.378 115.081 97.6904C112.476 97.027 110.128 97.1082 107.697 97.6541C111.462 94.832 115.319 92.0993 119.175 89.3671L119.175 89.3669C119.884 88.8644 120.593 88.362 121.302 87.859C122.281 88.5376 123.363 89.5188 124.511 90.5605C128.155 93.8668 132.473 97.7838 136.333 94.5804C142.159 89.746 131.026 84.8398 126.281 85.2253C125.699 85.2723 125.135 85.3763 124.586 85.5178C129.426 82.0437 134.192 78.4981 138.699 74.7034C139.507 74.8277 140.794 75.8328 142.339 77.0402C145.812 79.7538 150.593 83.4894 154.198 80.5449C156.8 78.4194 155.911 75.111 153.398 73.2202C150.875 71.3212 147.216 71.326 144.106 71.9673C142.761 72.2431 141.52 72.7691 140.364 73.4099L140.311 73.4124L140.22 73.4167C144.655 69.6431 149.118 65.7849 153.416 61.7952C153.491 61.8155 153.568 61.8364 153.645 61.8577C153.904 62.1266 154.339 62.2248 154.737 62.1652C154.956 62.2285 155.18 62.2938 155.409 62.3603L155.41 62.3607C158.812 63.3521 163.185 64.6264 166.576 64.0745C169.072 63.6684 171.338 61.9519 169.227 59.8408C167.51 58.124 162.85 58.3727 160.577 58.7805C159.468 58.9797 158.26 59.5562 157.048 60.1346C156.539 60.3775 156.029 60.6209 155.525 60.8367C155.395 60.6138 155.167 60.4707 154.907 60.4021C159.151 56.3929 163.202 52.2452 166.875 47.9174C167.986 48.0625 169.219 48.4746 170.489 48.8997C173.547 49.9225 176.829 51.0203 179.187 48.652C182.667 45.1549 176.127 43.1176 173.017 43.451C171.967 43.5634 170.932 43.8154 169.932 44.1481C172.606 40.5853 174.648 36.7773 176.084 32.7783C176.094 32.7827 176.104 32.7871 176.114 32.7916L176.124 32.7964C176.144 32.806 176.164 32.8156 176.189 32.8247C176.177 32.8191 176.165 32.8134 176.154 32.8076C176.146 32.8032 176.138 32.7987 176.129 32.7943L176.129 32.7942C176.115 32.7866 176.101 32.779 176.086 32.7717C176.23 32.3716 176.367 31.9697 176.498 31.5664C176.741 31.452 176.968 31.3677 177.077 31.333C175.664 32.1572 181.624 32.5575 182.74 32.6325C185.207 32.798 188.513 32.8588 190.324 31.1489C191.846 29.7126 191.758 27.5917 189.898 26.3912ZM76.1161 147.041C76.2251 148.161 76.549 149.183 77.1866 150.02C76.7185 149.063 76.3675 148.066 76.1161 147.041Z"
                      fill="#C1DEE2"/>
                <g opacity="0.5">
                    <path fill-rule="evenodd" clip-rule="evenodd"
                          d="M157.931 123.18C161.655 118.653 168.565 107.156 173.807 105.539C177.183 104.497 176.198 115.274 176.24 117.329C176.402 125.28 175.494 133.18 174.373 141.063C172.353 155.282 165.749 167.944 156.69 180.046C152.028 186.273 146.561 192.575 138.988 196.46C135.502 198.249 131.308 198.549 127.865 200.091C123.856 201.885 126.039 200.434 124.232 203.996C121.723 208.941 120.921 215.321 119.76 220.598C114.429 244.82 101.524 372.868 103.761 397.507C103.96 399.69 100.388 400.213 100.21 397.547C99.2621 383.41 107.463 285.517 111.601 253.503C115.738 221.488 119.925 193.206 124.123 182.13C129.216 168.692 138.415 152.533 146.072 140.002C149.629 134.18 153.506 128.559 157.931 123.18Z"
                          fill="#69A1AC"/>
                    <path fill-rule="evenodd" clip-rule="evenodd"
                          d="M185.571 280.195C195.261 274.13 205.75 285.576 196.981 291.642C192.134 294.995 187.066 293.802 184.213 291.008C182.361 292.933 180.628 294.945 178.962 296.645C173.888 301.825 169.091 307.128 164.507 312.555C154.985 323.829 146.824 335.74 138.292 347.433C129.872 358.974 121.519 370.574 113.887 382.407C107.421 392.432 98.8034 404.226 96.5898 415.217C99.9484 391.907 112.693 369.503 127.869 348.953C142.922 328.573 160.196 306.316 183.504 290.232C181.132 287.258 181.066 283.013 185.571 280.195Z"
                          fill="#C1DEE2"/>
                    <path fill-rule="evenodd" clip-rule="evenodd"
                          d="M1.69537 223.347C7.11789 224.251 15.9782 234.709 20.448 238.693C25.76 243.428 30.5794 248.475 35.1222 253.763C44.9018 265.145 53.6481 277.247 61.0853 289.866C73.21 310.439 82.9234 331.558 89.9729 353.96C94.2881 367.674 97.082 381.887 98.7379 396.001C99.0506 398.663 102.324 419.185 97.6072 419.738C93.365 420.236 94.6752 404.155 94.4706 401.968C92.1572 377.29 85.2268 353.278 75.5867 330.018C73.4869 324.951 71.5362 318.744 68.1782 314.185C65.76 310.9 68.1609 312.046 63.9111 310.803C60.2621 309.735 56.1045 309.996 52.3678 308.688C44.2501 305.85 37.7502 300.34 32.0526 294.798C20.9801 284.028 12.2057 272.376 7.63203 258.575C5.09485 250.923 2.76331 243.226 1.46945 235.337C1.13475 233.298 -1.79724 222.764 1.69537 223.347Z"
                          fill="#69A1AC"/>
                    <path fill-rule="evenodd" clip-rule="evenodd"
                          d="M23.0942 49.3476C43.5197 79.5476 60.3046 112.722 71.1427 146.322C77.7093 166.68 82.3015 187.57 86.8642 208.309C93.9288 240.422 100.611 272.532 102.512 305.214C104.424 338.087 108.206 376.001 95.5802 407.662C101.887 375.517 95.8825 341.302 94.8194 308.958C94.3114 293.517 92.8392 278.228 90.908 262.877C89.0339 247.987 85.9722 233.167 83.1211 218.393C81.7323 211.198 80.2737 204.014 78.7886 196.834C78.3453 194.691 78.158 188.335 76.5641 186.871C74.9599 185.398 66.7748 184.798 64.205 183.717C59.0304 181.54 54.163 178.447 49.8553 175.18C41.5972 168.917 34.4131 160.733 28.7429 152.665C15.6234 133.998 10.3782 111.217 10.6433 89.5984C10.6943 85.401 18.6121 40.2016 15.4322 39.5792C15.6236 39.388 15.8047 39.1907 15.9755 38.9854C18.383 42.4219 20.7454 45.8817 23.0942 49.3476Z"
                          fill="#89C5CC"/>
                    <path fill-rule="evenodd" clip-rule="evenodd"
                          d="M243.553 158.267C243.868 157.879 245.919 155.184 244.886 155.356C246.989 155.006 241.994 158.329 247.234 156.29C244.746 158.293 246.182 160.895 246.215 163.592C246.269 167.969 245.41 172.311 244.443 176.594C242.915 183.365 240.638 189.949 237.334 196.247C230.133 209.971 217.904 223.183 203.386 231.764C196.219 236 189.195 237.443 181.021 239.393C175.858 240.625 175.448 242.902 172.708 247.174C167.002 256.07 161.398 264.935 156.366 274.131C150.358 285.113 144.525 296.107 139.023 307.282C120.488 344.925 105.402 383.923 97.4798 424.283C97.2859 400.499 103.739 376.004 111.88 353.334C117.81 336.817 125.529 320.895 133.763 305.135C135.758 301.317 138.782 296.405 139.629 292.19C140.222 289.236 138.409 286.396 137.578 283.284C134.34 271.168 134.572 257.595 137.415 245.414C140.55 231.982 149.616 225.748 164.951 223.845C170.56 223.15 177.688 223.405 182.831 221.366C188.434 219.146 190.745 211.848 193.931 207.164C202.489 194.58 212.656 182.512 224.331 171.909C227.564 168.973 231.041 166.264 234.729 163.754C237.055 162.17 241.968 160.218 243.553 158.267Z"
                          fill="#89C5CC"/>
                    <path fill-rule="evenodd" clip-rule="evenodd"
                          d="M67.4733 404.448C66.9445 401.392 69.298 398.596 72.4001 398.596H125.21C128.312 398.596 130.666 401.392 130.137 404.448L126.832 423.557C125.173 433.145 116.855 440.148 107.124 440.148H90.486C80.7556 440.148 72.4372 433.145 70.7786 423.557L67.4733 404.448Z"
                          fill="#C1DEE2"/>
                </g>
                <path fill-rule="evenodd" clip-rule="evenodd"
                      d="M22.5234 411.028C22.5234 427.111 24.0121 440.148 43.9928 440.148C63.9735 440.148 65.4621 427.111 65.4621 411.028"
                      fill="#F2F2F2"/>
                <path fill-rule="evenodd" clip-rule="evenodd"
                      d="M49.9371 400.994C49.2047 402.074 48.5516 403.175 47.9748 404.293C47.9544 401.991 48.1037 399.672 48.5114 397.322C49.2083 393.295 50.2727 389.29 51.2729 385.291C51.9917 382.417 51.9463 377.255 54.6744 374.965C55.4225 374.47 55.6026 375.441 55.6026 375.863C55.612 375.952 55.6005 374.143 54.8743 374.458C50.5583 376.358 49.1598 382.334 47.778 385.326C45.7619 389.693 44.0466 394.157 43.3403 398.701C43.1618 399.848 43.0647 400.996 43.0422 402.141C42.8955 401.835 42.7577 401.526 42.6053 401.221C40.1142 396.24 36.7524 391.379 32.5595 386.897C31.5275 385.794 18.5506 374.912 17.5347 376.577C17.6349 376.819 17.8448 377.02 18.1648 377.179C18.1836 377.198 18.1841 377.188 18.1731 377.161C18.9353 378.21 21.1022 379.831 21.7772 380.751C23.4758 383.065 24.796 385.522 26.1376 387.931C28.9722 393.022 31.6016 398.165 34.1506 403.318C34.7442 404.519 35.3628 405.712 35.9939 406.902C29.4879 398.902 20.8088 391.639 8.86133 387.481C12.942 389.251 15.6173 392.581 18.3731 395.13C21.6968 398.206 25.1975 401.198 28.5274 404.27C32.4551 407.894 37.0766 411.71 40.8544 415.72C44.5138 422.27 48.0698 428.827 50.2649 435.712C49.3655 433.333 50.1944 430.046 50.0404 427.549C49.9183 425.562 49.6458 423.591 49.2725 421.624C49.734 422.511 50.1318 423.399 50.3119 424.225C50.1474 422.84 49.958 421.463 49.7544 420.094C50.2769 418.812 50.7901 417.615 51.1367 416.63C52.9131 411.575 55.0283 406.606 57.9089 401.764C60.5743 397.285 63.6318 392.862 66.9633 388.575C68.5174 386.576 70.0928 384.584 71.6584 382.589C72.6831 381.283 73.6588 379.192 75.0854 377.941C65.8634 385.129 55.7879 392.369 49.9371 400.994Z"
                      fill="#F2F2F2"/>
                <path fill-rule="evenodd" clip-rule="evenodd"
                      d="M185.583 267.681C190.301 270.527 194.937 271.902 197.113 271.34C202.57 269.933 203.072 249.955 198.85 242.08C194.627 234.204 172.922 230.771 171.828 246.375C171.448 251.791 173.721 256.624 177.078 260.568L171.058 288.648H188.545L185.583 267.681Z"
                      fill="#F8E1B9"/>
                <path fill-rule="evenodd" clip-rule="evenodd"
                      d="M200.5 245.616C200.327 244.595 199.904 243.461 199.562 242.495C199.122 241.25 198.456 240.127 197.722 239.069C196.341 237.078 194.685 235.279 192.856 233.786C189.516 231.059 185.264 229.486 181.082 229.997C178.971 230.255 176.921 231.061 175.177 232.402C173.601 233.614 172.085 235.398 170.044 235.527C167.823 235.666 165.788 233.705 164.007 232.493C161.999 231.127 159.863 230.132 157.516 229.745C153.584 229.098 149.891 230.427 147.181 233.655C144.298 237.09 142.202 242.128 144.096 246.679C144.447 247.525 144.9 248.239 145.55 248.83C146.146 249.372 147.056 249.949 147.298 250.815C147.555 251.736 146.788 252.923 146.491 253.754C146.065 254.945 145.715 256.194 145.839 257.488C146.044 259.612 147.378 261.641 148.787 263.037C150.22 264.458 151.985 265.273 153.87 265.649C155.128 265.9 156.414 266.038 157.693 265.944C158.328 265.897 158.888 265.721 159.503 265.58C160.102 265.444 160.436 265.603 160.944 265.931C163.301 267.457 165.837 268.047 168.559 267.82C170.857 267.628 173.505 267.071 175.38 265.496C177.461 263.746 177.42 261.333 176.93 258.755C177.449 259.012 178.885 259.172 178.027 258.146C177.687 257.739 177.045 257.574 176.609 257.335C176.101 257.057 175.585 256.697 175.191 256.243C173.599 254.41 175.207 250.681 177.208 250.066C180.181 249.153 180.847 253.361 182.969 254.449C184.189 255.075 185.466 254.219 186.38 253.346C187.605 252.176 188.439 250.626 189.16 249.049C189.754 247.75 190.306 246.432 190.911 245.14C191.194 244.536 192.172 242.83 191.68 242.147C193.81 241.722 196.182 242.608 198.016 243.769C198.774 244.249 199.352 244.779 199.756 245.626C199.843 245.808 200.031 246.348 200.268 246.37C200.709 246.411 200.544 245.872 200.5 245.616Z"
                      fill="#191847"/>
                <path fill-rule="evenodd" clip-rule="evenodd"
                      d="M132.413 380.522C123.576 380.522 116.413 387.686 116.413 396.522V454.938C116.413 463.775 123.576 470.938 132.413 470.938H207.518C216.354 470.938 223.518 463.775 223.518 454.938V396.522C223.518 387.686 216.354 380.522 207.518 380.522H132.413ZM140.814 400.939C138.605 400.939 136.814 402.729 136.814 404.939V446.522C136.814 448.731 138.605 450.522 140.814 450.522H199.117C201.326 450.522 203.117 448.731 203.117 446.522V404.939C203.117 402.729 201.326 400.939 199.117 400.939H140.814Z"
                      fill="#C5CFD6"/>
                <path fill-rule="evenodd" clip-rule="evenodd"
                      d="M295.765 467.292C281.4 449.737 271.68 436.722 266.606 428.248C257.917 413.739 250.806 400.828 248.562 395.896C243.211 384.135 260.882 378.628 264.881 384.114C270.935 392.417 283.862 418.543 303.664 462.492L295.765 467.292Z"
                      fill="#F8E1B9"/>
                <path fill-rule="evenodd" clip-rule="evenodd"
                      d="M266.329 462.188L239.594 394.841C233.877 382.564 261.49 374.494 265.692 380.207C275.232 393.178 297.908 444.349 300.75 448.213L266.329 462.188Z"
                      fill="#2F3676"/>
                <path fill-rule="evenodd" clip-rule="evenodd"
                      d="M195.126 448.68C200.334 441.078 219.275 415.502 229.592 404.92C232.557 401.879 235.45 398.961 238.186 396.241C246.319 388.157 262.516 401.747 254.398 409.11C234.182 427.448 204.685 452.203 202.22 454.41C198.766 457.504 191.854 453.458 195.126 448.68Z"
                      fill="#F8E1B9"/>
                <path fill-rule="evenodd" clip-rule="evenodd"
                      d="M198.854 446.027C198.144 445.096 196.802 444.868 195.916 445.634C194.779 446.618 193.387 447.927 192.843 448.87C191.857 450.578 190.536 454.183 190.536 454.183C192.516 455.327 226.125 474.745 226.125 474.745C226.125 474.745 230.16 470.957 227.382 468.864C224.605 466.772 222.798 465.335 222.798 465.335L210.678 448.624C210.347 448.168 209.705 448.075 209.258 448.419L206.927 450.216C206.927 450.216 203.415 449.909 201.685 448.909C200.77 448.381 199.679 447.109 198.854 446.027Z"
                      fill="#E4E4E4"/>
                <path fill-rule="evenodd" clip-rule="evenodd"
                      d="M292.15 464.087C291.069 463.636 289.793 464.11 289.409 465.217C288.915 466.638 288.364 468.468 288.364 469.557C288.364 471.529 289.02 475.313 289.02 475.313C291.307 475.313 330.115 475.313 330.115 475.313C330.115 475.313 331.717 470.013 328.266 469.591C324.815 469.168 322.532 468.827 322.532 468.827L303.687 460.42C303.172 460.19 302.569 460.431 302.355 460.952L301.233 463.675C301.233 463.675 298.038 465.166 296.041 465.166C294.985 465.166 293.405 464.611 292.15 464.087Z"
                      fill="#E4E4E4"/>
                <path fill-rule="evenodd" clip-rule="evenodd"
                      d="M229.974 398.204C229.974 398.204 196.644 392.77 185.324 390.773C163.814 386.977 157.541 375.393 161.25 350.118L200.883 350.118C208.75 352.392 266.627 378.241 266.627 378.241C273.569 381.69 272.277 391.859 271.008 395.209C270.93 395.414 235.898 455.416 235.898 455.416L203.477 434.747L230.035 400.64C230.035 400.64 231.087 398.519 229.974 398.204Z"
                      fill="#5C63AB"/>
                <path fill-rule="evenodd" clip-rule="evenodd"
                      d="M123.989 381.914C126.124 377.579 136.792 321.788 136.792 321.788L152.746 321.848C152.746 321.848 134.519 380.947 133.395 383.735C131.935 387.356 134.415 392.617 136.097 396.185C136.357 396.736 136.598 397.248 136.802 397.706C134.469 398.751 133.348 397.488 132.166 396.157C130.831 394.653 129.419 393.061 126.094 394.609C124.81 395.207 123.594 395.914 122.407 396.605C118.305 398.991 114.536 401.183 109.41 398.018C108.597 397.516 107.707 395.627 109.859 394.15C115.219 390.471 122.945 384.033 123.989 381.914ZM258.36 360.175L237.721 340.025L230.865 351.895L252.328 364.559C257.71 373.043 260.87 376.709 261.81 375.556C262.603 374.584 262.239 373.519 261.905 372.538C261.644 371.774 261.401 371.061 261.735 370.483C262.498 369.162 266.807 369.918 270.865 370.811C274.924 371.704 273.985 369.709 273.122 368.667C269.287 365.569 264.366 362.739 258.36 360.175Z"
                      fill="#F8E1B9"/>
                <path fill-rule="evenodd" clip-rule="evenodd"
                      d="M185.408 276.494L191.708 275.413C201.633 310.523 252.628 334.456 255.758 347.581C256.906 352.395 253.445 354.828 255.233 356.294L247.043 362.293C245.657 360.674 242.697 363.636 236.517 361.564C230.337 359.492 185.408 318.068 185.408 276.494Z"
                      fill="#DB2721"/>
                <path fill-rule="evenodd" clip-rule="evenodd"
                      d="M175.285 269.24C173.082 269.086 171.17 270.747 171.016 272.951L170.794 276.141C158.937 285.273 129.549 312.559 121.891 363.355C121.087 368.691 122.541 371.549 123.704 373.833C124.499 375.395 125.157 376.688 124.862 378.322L135.58 381.283C135.58 380.076 136.93 379.159 138.673 377.975C141.207 376.253 144.569 373.969 145.813 369.415C146.991 365.099 148.717 359.708 150.779 353.71C150.973 361.653 152.479 368.958 155.757 375.008C163.938 390.102 211.211 373.549 216.15 358.15C218.785 349.933 215.046 343.035 210.1 333.911C203.822 322.33 195.6 307.163 196.006 281.163L196.456 274.731C196.61 272.527 194.948 270.616 192.744 270.462L175.285 269.24Z"
                      fill="#FF4133"/>
            </svg>