<svg width="281" height="398" viewBox="0 0 281 398" fill="none"
                         xmlns="http://www.w3.org/2000/svg">
                        <path fill-rule="evenodd" clip-rule="evenodd"
                              d="M146.133 25.2253C134.535 25.2253 125.133 34.6274 125.133 46.2253V64.0188C125.133 74.5386 132.869 83.2518 142.962 84.7808C142.966 84.8667 142.971 84.9531 142.976 85.0398H170.043C174.646 80.538 169.444 50.0041 166.2 39.8845C165.753 38.4889 165.319 37.4757 164.893 36.7775C161.435 29.9249 154.333 25.2253 146.133 25.2253Z"
                              fill="#191847"/>
                        <path fill-rule="evenodd" clip-rule="evenodd"
                              d="M146.539 70.2987C152.583 73.9453 158.522 75.7072 161.309 74.9879C168.299 73.1844 168.942 47.5872 163.534 37.496C158.125 27.4049 130.321 23.0065 128.919 43.0003C128.433 49.9396 131.344 56.1324 135.645 61.1856L127.933 97.1644H150.333L146.539 70.2987Z"
                              fill="#E1C6AE"/>
                        <path fill-rule="evenodd" clip-rule="evenodd"
                              d="M125.956 43.117C126.606 42.4733 127.235 41.8504 127.859 41.293L127.829 40.5667C127.829 40.5667 134.86 26.1596 145.668 26.1596C156.466 26.1596 159.881 31.1847 162.784 35.4563L162.792 35.4678C161.273 40.6831 156.697 42.7931 151.522 45.1794C149.294 46.2067 146.955 47.2851 144.701 48.6844C143.818 47.9664 142.693 47.5361 141.466 47.5361C138.631 47.5361 136.333 49.8367 136.333 52.6746C136.333 55.5125 138.631 57.8131 141.466 57.8131C141.545 57.8131 141.622 57.8114 141.7 57.8079C142.732 68.9052 142.318 81.578 139.243 84.5863H112.176C111.399 71.0729 114.891 67.218 118.46 63.2789C121.817 59.5724 125.243 55.7915 125.243 43.8199C125.483 43.5843 125.721 43.3493 125.955 43.1171L125.956 43.117Z"
                              fill="#191847"/>
                        <path fill-rule="evenodd" clip-rule="evenodd"
                              d="M91.9141 266.35C91.9141 266.35 125.499 275.753 149.866 275.753C174.234 275.753 195.133 261.272 195.133 261.272C195.133 261.272 162.267 251.621 141 251.621C119.733 251.621 91.9141 266.35 91.9141 266.35Z"
                              fill="#1F28CF"/>
                        <path fill-rule="evenodd" clip-rule="evenodd"
                              d="M169.249 284.789C169.033 284.464 168.851 284.111 168.706 283.728C165.713 275.805 117.776 190.335 113 174.709H166.971C170.602 186.59 186.945 261.148 189.245 276.023C196.502 299.487 211.444 375.48 213.351 380.744C215.358 386.282 204.067 392.052 201.059 385.243C196.272 374.41 184.865 344.434 179.787 326.13C175.025 308.971 171.148 293.534 169.249 284.789Z"
                              fill="#E1C6AE"/>
                        <path fill-rule="evenodd" clip-rule="evenodd"
                              d="M125.093 295.224C103.177 300.769 23.0119 310.793 17.5106 312.365C11.8515 313.982 6.88952 302.306 13.8845 299.777C25.0146 295.752 55.6833 286.453 74.2778 282.658C89.2341 279.606 102.882 277.116 112.045 275.657C111.268 249.893 107.72 188.063 110.046 174.709H157.8C155.57 187.515 136.716 280.952 133.212 290.305C132.1 293.644 128.782 295.12 125.093 295.224Z"
                              fill="#E1C6AE"/>
                        <path fill-rule="evenodd" clip-rule="evenodd"
                              d="M15.8295 299.179C16.1031 298.041 15.4141 296.869 14.2611 296.67C12.3016 296.33 9.47768 295.945 7.9553 296.213C5.47016 296.651 0.84861 298.321 0.84861 298.321C1.35764 301.208 9.99806 350.21 9.99806 350.21C9.99806 350.21 17.0324 351.056 16.7964 346.604C16.5605 342.152 16.4813 339.194 16.4813 339.194L22.9498 313.248C23.0859 312.702 22.7445 312.151 22.1947 312.03L18.2321 311.156C18.2321 311.156 15.6411 307.454 15.1964 304.931C14.9326 303.435 15.403 300.952 15.8295 299.179Z"
                              fill="#E4E4E4"/>
                        <path fill-rule="evenodd" clip-rule="evenodd"
                              d="M200.355 383.376C199.281 382.908 198.005 383.384 197.609 384.486C196.935 386.36 196.066 389.077 196.066 390.624C196.066 393.152 196.908 398 196.908 398C199.836 398 249.549 398 249.549 398C249.549 398 251.601 391.209 247.18 390.668C242.759 390.126 239.835 389.69 239.835 389.69L215.431 378.8C214.916 378.57 214.313 378.811 214.099 379.332L212.552 383.088C212.552 383.088 208.459 384.999 205.901 384.999C204.384 384.999 202.025 384.105 200.355 383.376Z"
                              fill="#E4E4E4"/>
                        <path fill-rule="evenodd" clip-rule="evenodd"
                              d="M110.2 174.709C110.2 174.709 141.766 165.669 169.933 174.709C176.467 204.547 192.342 216.39 195.133 262.137C163.4 277.92 124.2 250.881 91.5335 266.272C82.2001 244.743 95.2668 192.894 110.2 174.709Z"
                              fill="#2B44FF"/>
                        <path fill-rule="evenodd" clip-rule="evenodd"
                              d="M237.584 132.597L200.733 137.628L207.345 154.155L237.246 142.288C250.134 143.561 256.366 143.255 255.942 141.369C255.585 139.779 254.215 139.299 252.953 138.857C251.97 138.513 251.052 138.191 250.73 137.386C249.995 135.547 254.184 131.736 258.313 128.29C262.442 124.844 259.671 124.21 257.928 124.261C251.737 125.714 244.955 128.492 237.584 132.597ZM58.3044 223.205C61.0395 217.651 84.9714 146.167 84.9714 146.167L105.409 146.243C105.409 146.243 71.7935 221.967 70.3537 225.539C68.4834 230.178 71.6604 236.92 73.8146 241.491C74.1479 242.198 74.4567 242.853 74.7186 243.441C71.7294 244.78 70.2935 243.161 68.7797 241.455C67.0699 239.528 65.2607 237.489 61.0017 239.472C59.3562 240.238 57.7992 241.144 56.2779 242.03C51.0233 245.087 46.1961 247.896 39.6294 243.84C38.5883 243.197 37.4475 240.776 40.2039 238.884C47.0711 234.17 56.9672 225.921 58.3044 223.205Z"
                              fill="#E1C6AE"/>
                        <path fill-rule="evenodd" clip-rule="evenodd"
                              d="M140.952 81.2818L156.954 82.3489C160.895 118.039 182.362 140.583 230.423 132.951L236.809 178.912C191.888 184.723 152.492 166.721 144.418 117.979C142.328 105.361 140.678 92.2294 140.952 81.2818Z"
                              fill="#AFB9C5"/>
                        <path fill-rule="evenodd" clip-rule="evenodd"
                              d="M61.1079 213.948C72.2181 154.775 95.6678 108.996 131.457 76.6104H132.993H133.045L133.058 76.6252L157.303 82.1835C157.303 111.337 163.782 133.119 170.011 154.062C172.701 163.106 175.345 171.993 177.4 181.249H111.92C110.998 191.854 110.432 202.754 110.136 213.948H61.1079Z"
                              fill="#C5CFD6"/>
                        <path fill-rule="evenodd" clip-rule="evenodd"
                              d="M111.92 181.249C113.798 159.658 117.152 139.291 122.695 120.146C121.48 140.619 121.143 166.018 125.229 181.249H111.92Z"
                              fill="black" fill-opacity="0.1"/>
                    </svg>