<svg width="264" height="345" viewBox="0 0 264 345" fill="none" xmlns="http://www.w3.org/2000/svg">
<path fill-rule="evenodd" clip-rule="evenodd" d="M12.57 42.1014C36.1806 78.5747 63.6795 113.891 80.1935 153.769C79.528 149.069 78.8224 144.373 78.0326 139.684C73.8424 114.829 68.6346 90.1542 63.1622 65.5101C60.3753 52.9625 57.4278 40.4604 54.4047 27.9594C52.7788 21.2451 51.1729 14.5267 49.5135 7.81876C49.1115 6.19294 48.7662 3.35516 48.2629 0.479004C64.3119 48.9735 79.7886 97.5045 91.1092 147.165C92.5943 153.682 93.859 160.188 94.895 166.683C95.2494 165.201 95.5979 163.719 95.9795 162.242C100.56 144.53 107.431 126.959 115.612 110.397C119.523 102.478 124.015 94.7311 129.305 87.513C132.603 83.0136 140.382 77.6651 143.391 73.0571C126.935 100.849 120.993 135.622 111.492 165.836C109.173 173.209 106.839 180.571 104.553 187.945C118.881 161.485 141.112 139.745 172.022 130.323C134.607 153.087 112.166 192.951 97.0431 233.723C96.9933 234.206 96.9341 234.69 96.8828 235.174C101.333 227.397 106.938 220.363 114.535 215.437C130.795 204.89 148.833 207.962 164.606 217.009C152.227 209.763 129.854 216.361 119.439 223.726C111.982 228.998 105.61 236.07 100.076 242.97C98.7499 244.624 96.9409 246.554 95.0298 248.613C92.3504 264.629 87.9839 280.535 81.8019 296.314C82.8221 291.785 82.0845 284.541 82.3674 281.165C82.3982 280.8 82.4232 280.434 82.4537 280.07C81.514 283.524 80.6061 286.94 79.732 290.301C81.4696 283.888 82.414 277.194 83.1513 270.43C83.3411 267.523 83.5263 264.617 83.722 261.71C83.66 256.194 83.4132 250.656 82.9959 245.109C81.5162 239.719 79.8594 234.634 78.4931 230.405C73.5627 215.146 66.3348 200.528 57.4386 186.891C49.3218 174.446 39.6059 163.174 28.3896 152.979C22.343 147.485 16.0149 142.252 9.77599 136.947C7.51995 135.029 3.48751 130.313 0 127.855C25.3991 140.749 51.5418 154.698 70.0705 175.473C67.8982 167.792 65.5388 160.22 63.043 152.799C50.381 115.149 34.3934 76.1296 12.57 42.1014Z" fill="#DDE3E9"/>
<path fill-rule="evenodd" clip-rule="evenodd" d="M37.9458 248.561C37.9458 290.372 41.5416 324.267 89.8053 324.267C138.069 324.267 141.665 290.372 141.665 248.561" fill="#C5CFD6"/>
<path fill-rule="evenodd" clip-rule="evenodd" d="M138.26 96.492C143.576 100.484 148.974 102.705 151.657 102.302C158.384 101.291 161.452 77.4249 157.352 67.4693C153.253 57.5138 127.607 50.7169 124.367 69.2717C123.243 75.7116 125.376 81.7819 128.922 86.921L118.227 119.809L139.23 121.972L138.26 96.492Z" fill="#E1C6AE"/>
<path fill-rule="evenodd" clip-rule="evenodd" d="M160.764 58.8768C160.283 63.5414 156.227 66.9744 151.589 66.7452C148.866 67.286 145.415 67.5334 141.629 67.3977C141.853 68.8052 141.891 70.382 141.71 72.1407C141.55 73.6937 141.208 75.323 140.72 76.9628C140.004 75.9114 138.979 75.1678 137.872 75.0538C134.776 74.7349 132.36 77.0545 132.082 79.753C131.729 83.178 133.455 85.8598 136.327 86.3557C133.208 91.0766 129.219 94.4628 125.621 94.0922C118.785 93.3881 114.865 83.7673 115.875 73.9615C115.91 73.617 115.952 73.2754 116.001 72.9371C113.524 74.2835 111.166 76.1398 108.791 78.0095C103.744 81.9822 98.6208 86.0153 92.1154 85.3452C79.0994 84.0045 76.629 57.2714 94.8142 59.1446C107.182 60.4185 113.08 62.8446 118.048 66.0457C119.382 63.2431 121.21 60.9597 123.314 59.4502C123.832 58.9769 124.594 58.5516 125.559 58.184C126.152 57.9352 126.758 57.7454 127.375 57.6191C130.656 56.7854 135.319 56.4393 140.453 56.788C141.411 56.8531 142.351 56.9399 143.264 57.0465C143.775 52.2373 148.088 48.745 152.912 49.2419C157.745 49.7397 161.261 54.0534 160.764 58.8768Z" fill="#FFFDD9"/>
<path fill-rule="evenodd" clip-rule="evenodd" d="M84.6053 239H150.168L158.759 344.307H61.1631L84.6053 239Z" fill="#C5CFD6"/>
<path fill-rule="evenodd" clip-rule="evenodd" d="M84.6053 239H104.77L116.838 344.307H61.1631L84.6053 239Z" fill="black" fill-opacity="0.1"/>
<path fill-rule="evenodd" clip-rule="evenodd" d="M186.191 259.192C178.823 274.828 167.311 312.785 167.311 312.785L177.084 317.253C177.084 317.253 201.883 277.354 217.039 250.079C216.332 256.219 215.613 263.132 214.947 270.399C213.368 287.614 214.946 324.806 215.795 335.549C216.329 342.301 225.497 340.887 226.353 335.532C226.498 334.625 227.089 331.441 227.97 326.689C232.293 303.393 243.605 242.42 243.625 227.491C243.633 221.484 231.905 216.087 224.915 220.287C220.113 215.16 211.026 212.205 205.805 220.674C202.486 226.058 194.601 241.343 186.191 259.192Z" fill="#E1C6AE"/>
<path fill-rule="evenodd" clip-rule="evenodd" d="M168.009 298.733L201.554 219.21C209.591 206.274 232.122 221.842 229.381 229.345C223.16 246.379 191.517 301.526 189.663 306.601L168.009 298.733Z" fill="#1F28CF"/>
<path fill-rule="evenodd" clip-rule="evenodd" d="M168.854 308.39C168.153 307.452 166.811 307.226 165.92 307.986C164.553 309.151 162.746 310.813 162.068 311.988C160.92 313.977 159.381 318.177 159.381 318.177C161.687 319.509 200.834 342.127 200.834 342.127C200.834 342.127 205.534 337.715 202.299 335.277C199.063 332.839 196.959 331.165 196.959 331.165L182.742 311.565C182.411 311.108 181.769 311.016 181.323 311.359L178.473 313.555C178.473 313.555 174.382 313.198 172.367 312.034C171.22 311.371 169.834 309.703 168.854 308.39Z" fill="#E4E4E4"/>
<path fill-rule="evenodd" clip-rule="evenodd" d="M216.304 330.422C215.227 329.959 213.952 330.436 213.56 331.539C212.958 333.232 212.224 335.576 212.224 336.932C212.224 339.229 212.989 343.637 212.989 343.637C215.652 343.637 260.855 343.637 260.855 343.637C260.855 343.637 262.721 337.464 258.701 336.972C254.681 336.48 252.022 336.083 252.022 336.083L229.917 326.222C229.402 325.992 228.8 326.233 228.585 326.754L227.214 330.081C227.214 330.081 223.493 331.819 221.166 331.819C219.841 331.819 217.808 331.068 216.304 330.422Z" fill="#E4E4E4"/>
<path fill-rule="evenodd" clip-rule="evenodd" d="M245.976 233.601C245.976 256.163 235.268 308.792 235.262 313.76L212.224 313.778C212.224 313.778 217.282 243.338 215.811 242.579C214.34 241.82 155.513 248.456 137.87 248.456C112.428 248.456 101.904 232.401 101.05 202.66H151.449C161.71 203.759 215.236 214.563 235.114 218.277C243.625 219.867 245.976 227.386 245.976 233.601Z" fill="#2B44FF"/>
<path fill-rule="evenodd" clip-rule="evenodd" d="M177.199 213.075C161.082 246.665 93.2349 223.985 93.2349 223.985C93.2349 218.164 95.5418 212.329 97.9647 206.2C100.563 199.629 103.294 192.72 103.457 185.132C103.758 171.171 106.366 128.87 117.254 114.581C117.452 113.935 117.653 113.288 117.857 112.639L118.611 112.994C118.728 112.872 118.847 112.754 118.966 112.639L142.72 116.314C142.72 127.066 149.596 137.262 155.786 146.439C157.292 148.673 158.757 150.845 160.073 152.951C161.797 155.71 163.742 158.518 165.735 161.395C175.829 175.967 187.158 192.321 177.199 213.075Z" fill="#C1DEE2"/>
<path fill-rule="evenodd" clip-rule="evenodd" d="M146.761 206.725C148.35 198.521 149.38 193.044 149.853 190.294C162.508 204.605 169.819 211.843 171.786 212.009C175.485 212.321 178.218 209.039 178.996 209.962C180.283 213.783 176.65 223.349 169.705 224.74C166.389 225.405 161.257 218.561 159.143 216.137C158.311 215.183 154.184 212.046 146.761 206.725ZM168.621 162.985C171.902 162.985 173.664 164.342 175.604 167.08C177.543 169.818 179.379 182.732 176.265 182.732C173.15 182.732 160.103 177.74 160.103 174.384C160.103 171.028 169.006 169.607 169.006 167.08C169.006 164.553 165.341 162.985 168.621 162.985Z" fill="#E1C6AE"/>
<path fill-rule="evenodd" clip-rule="evenodd" d="M113.41 128.536C105.079 163.297 108.473 192.616 140.137 219.209C139.765 220.545 139.542 221.344 139.542 221.344C102.374 195.348 102.356 163.846 113.41 128.536Z" fill="black" fill-opacity="0.2"/>
</svg>
