<svg width="212" height="282" viewBox="0 0 212 282" fill="none" xmlns="http://www.w3.org/2000/svg">
<g opacity="0.7">
<path fill-rule="evenodd" clip-rule="evenodd" d="M22.2206 81.1057C33.4769 80.6078 47.3977 86.2094 48.5987 96.6408C49.471 104.22 49.2009 111.778 50.5509 119.346C51.6304 125.394 53.9136 131.2 57.0274 136.71C60.0217 142.008 66.2328 146.518 67.8482 152.178C68.8778 155.784 68.3015 160.857 66.8816 164.385C65.1548 168.674 66.0726 168.335 69.5133 171.933C76.2555 178.986 82.3265 186.218 86.6196 194.641C92.8037 206.774 96.858 220.955 94.5628 234.236C94.2708 235.922 93.9246 241.974 91.2007 242.397C88.1585 242.87 89.581 239.409 89.7435 238.291C90.7785 231.157 91.6983 224.921 90.4497 217.675C85.6318 189.72 62.1084 171.301 46.7915 147.575C45.9495 146.351 44.1719 143.437 42.9359 141.515C40.9847 138.481 39.023 132.706 36.3815 130.456C31.4066 126.217 35.9803 134.739 36.9497 136.366C38.1753 138.424 39.5237 140.611 40.7796 142.414C46.5264 150.773 52.9408 159.898 58.876 168.514C33.2069 173.501 15.1291 147.191 8.24071 129.894C2.56521 115.643 -4.22531 82.3251 22.2206 81.1057Z" fill="#69A1AC"/>
<path fill-rule="evenodd" clip-rule="evenodd" d="M173.089 54.6421C154.272 55.9149 142.191 66.5007 136.568 81.3069C133.537 89.2861 133.19 97.483 131.506 105.683C128.972 118.02 123.521 127.369 112.867 136.158C109.567 138.88 107.135 141.675 105.407 144.665C101.975 147.65 98.988 151.029 96.7935 155.159C93.9901 160.434 93.1969 166.763 96.4336 172.022C97.3038 173.435 99.4748 176.273 101.725 177.563C93.3009 192.858 88.6691 209.61 89.1912 226.341C89.5067 236.44 90.085 246.544 90.7597 256.631C90.9413 259.339 91.9758 263.811 93.5297 259.269C94.9519 255.115 93.1685 248.592 93.0034 244.252C92.2005 223.107 91.5141 203.882 101.723 184.127C102.794 182.056 103.929 180.003 105.111 177.965C105.181 177.931 105.245 177.889 105.31 177.849C105.355 177.879 105.396 177.911 105.441 177.94C105.517 177.825 105.62 177.688 105.741 177.536C106.08 177.237 106.376 176.86 106.658 176.44C107.563 175.37 108.588 174.113 108.594 173.425C108.594 173.419 108.59 173.411 108.59 173.406C114.91 164.61 122.149 156.299 129.543 148.15C129.488 148.21 137.564 138.835 136.315 144.019C135.713 146.518 129.773 151.275 127.374 153.922C122.067 159.809 115.835 167.269 110.656 174.482C109.959 174.824 108.974 176.5 108.262 177.749C107.869 178.381 107.502 179.019 107.142 179.575C125.492 184.744 139.767 174.332 149.5 162.222C149.512 162.207 149.523 162.193 149.534 162.178C152.496 158.832 155.53 155.509 159.321 152.864C165.645 148.45 172.418 147.672 179.875 145.499C200.21 139.576 208.856 117.108 211.601 100.436C214.699 81.6282 199.545 52.7875 173.089 54.6421Z" fill="#89C5CC"/>
<path fill-rule="evenodd" clip-rule="evenodd" d="M135.919 1.97123C116.606 19.1076 107.276 42.8761 99.8878 65.2209C91.6364 90.1777 86.1861 115.52 85.9769 141.467C85.8398 158.515 85.2958 175.669 86.4629 192.697C86.877 198.744 87.5841 204.802 88.7084 210.784C88.801 211.276 91.3164 224.634 93.7232 221.521C95.092 219.751 91.1448 207.664 90.8465 205.651C89.1687 194.313 88.7788 182.891 88.8607 171.47C88.9952 152.667 88.3449 133.959 90.5803 115.225C90.9136 112.428 91.1773 109.49 91.9566 106.754C92.784 103.845 91.7302 105.115 94.4254 103.963C97.0443 102.843 100.28 103.003 102.998 101.599C113.776 96.0265 119.29 81.714 123.581 72.323C128.489 61.5839 131.472 50.1323 133.855 38.831C135.604 30.5276 136.855 22.2747 137.563 13.8644C137.786 11.2138 137.799 8.44191 138.41 5.83561C138.574 5.13257 139.4 3.8889 139.37 3.2663C139.307 1.94863 138.374 1.17368 138.298 0.0664604C137.489 0.686739 136.696 1.32212 135.919 1.97123Z" fill="#89C5CC"/>
<path fill-rule="evenodd" clip-rule="evenodd" d="M30.6128 230.287C30.6128 258.626 57.5597 281.6 90.8004 281.6C124.041 281.6 150.988 258.626 150.988 230.287" fill="#89C5CC"/>
<path fill-rule="evenodd" clip-rule="evenodd" d="M132.047 185.36C146.944 184.423 163.579 194.669 170.764 205.331C176.557 213.927 175.581 225.215 172.003 234.348C169.607 240.463 164.378 249.18 155.659 249.265C144.749 249.371 144.223 237.876 144.012 231.156C143.732 222.221 142.407 214.438 134.15 208.348C133.13 207.597 132.06 206.893 130.991 206.189C130.041 205.565 129.092 204.94 128.177 204.282C128.031 204.177 127.885 204.072 127.737 203.967C124.817 201.874 121.751 199.677 121.377 196.228C120.836 191.23 124.145 190.33 129.198 191.259C129.361 191.289 129.804 191.432 130.406 191.627C132.986 192.46 138.492 194.24 137.45 192.113C137.058 191.311 135.626 190.676 133.818 190.2C129.139 189.767 123.56 189.263 121.955 189.564C104.645 192.802 97.9051 213.245 96.1151 226.233C95.922 227.635 95.7657 229.042 95.6295 230.451H92.4492C92.6699 227.049 92.9613 223.653 93.6284 220.289C96.1797 207.423 104.157 188.527 121.653 186.439C122.298 186.361 124.673 186.348 127.549 186.492C128.912 185.843 130.439 185.45 132.047 185.36Z" fill="#69A1AC"/>
</g>
</svg>
