<svg width="351" height="472" viewBox="0 0 351 472" fill="none" xmlns="http://www.w3.org/2000/svg">
            <path fill-rule="evenodd" clip-rule="evenodd"
                  d="M329.09 149.203C324.864 137.186 314.943 127.781 304.644 119.163C284.595 102.387 273.812 92.0143 266.667 67.4736C262.465 53.0407 258.188 37.7462 244.859 27.2749C235.154 19.6495 218.451 13.2428 205.473 18.7032C185.506 28.8635 180.144 49.7141 182.158 68.3847C184.653 91.5254 197.332 105.794 221.69 114.317C235.414 119.118 244.537 125.452 251.987 136.489C257.947 145.314 261.421 156.365 268.91 164.366C280.106 176.326 294.116 181.642 311.385 179.656C295.21 154.283 276.311 128.673 253.517 107.31C251.383 105.162 238.798 96.9421 241.336 93.2819C244.133 89.2518 257.052 104.391 256.961 104.299C263.585 110.782 269.715 117.671 275.734 124.626C275.719 124.633 275.701 124.636 275.684 124.644C281.882 131.78 288.03 139.022 294.061 146.355C296.5 149.457 298.873 152.598 301.146 155.818C304.481 160.543 309.774 173.954 315.231 176.86C316.399 177.481 317.478 177.828 318.488 177.971C322.211 183.169 325.834 188.408 329.28 193.71C338.278 207.555 346.002 222.175 349.547 237.807C350.581 242.369 349.849 259.436 353.502 262.729C360.181 268.754 358.224 257.153 357.825 253.651C354.507 224.653 342.297 199.949 324.568 175.571C330.014 169.507 330.801 154.071 329.09 149.203Z"
                  fill="#F2F2F2"/>
            <path fill-rule="evenodd" clip-rule="evenodd"
                  d="M100.338 163.214C107.379 156.141 124.305 154.941 134.657 155.414C147.467 156 160.624 158.658 172.81 161.873C192.886 167.168 212.393 176.83 230.074 186.182C232.204 187.309 258.455 200.768 256.131 203.13C253.829 205.47 228.06 189.483 222.317 186.727C210.061 180.846 198.822 173.89 185.313 170.007C171.325 165.984 156.532 164.392 141.823 164.501C139.935 164.516 133.778 163.394 133.645 165.775C133.515 168.103 143.703 166.888 145.5 166.902C152.921 166.96 160.387 167.556 167.702 168.652C181.408 170.706 194.293 174.844 206.032 181.19C202.757 187.683 194.905 190.677 186.668 189.052C179.549 187.647 172.61 184.183 165.639 183.182C160.838 182.492 156.031 182.902 151.375 184.055C139.095 187.098 132.013 193.331 118.511 188.995C107.927 185.597 90.2257 173.385 100.338 163.214Z"
                  fill="#F2F2F2"/>
            <path fill-rule="evenodd" clip-rule="evenodd"
                  d="M70.0585 49.247C54.4243 48.2748 36.9647 58.9127 29.4233 69.983C23.3439 78.9085 24.368 90.6289 28.1231 100.111C30.6376 106.46 36.1255 115.511 45.2775 115.6C56.7276 115.71 57.2797 103.774 57.5012 96.7966C57.7954 87.5201 59.1853 79.439 67.8521 73.1159C68.9222 72.3355 70.045 71.6049 71.1677 70.8743C72.1643 70.2258 73.1607 69.5774 74.1202 68.8943C74.2735 68.7851 74.4277 68.6759 74.5822 68.5663C77.6468 66.3938 80.8655 64.1122 81.2573 60.5313C81.8255 55.3419 78.3523 54.408 73.0494 55.3721C72.8783 55.4031 72.4136 55.5517 71.7815 55.7538C69.0734 56.6195 63.2945 58.4669 64.3877 56.2585C64.7993 55.4264 66.3027 54.767 68.2003 54.2729C73.1106 53.8226 78.9664 53.3002 80.6505 53.6123C98.8189 56.974 105.893 78.1998 107.771 91.6856C107.984 93.2126 108.154 94.7448 108.302 96.2794H111.633C111.399 92.6754 111.096 89.0772 110.381 85.5136C107.704 72.1555 99.331 52.5359 80.9681 50.3677C80.2907 50.2869 77.7987 50.2734 74.7801 50.4226C73.3495 49.7484 71.747 49.3407 70.0585 49.247Z"
                  fill="#F2F2F2"/>
            <path fill-rule="evenodd" clip-rule="evenodd"
                  d="M27.2877 243.26C29.9685 238.27 37.3739 236.47 42.4413 235.781C44.394 235.516 49.6013 235.236 53.8779 235.787C52.6311 234.466 51.4206 233.109 50.249 231.714C45.4319 225.976 40.9512 219.897 36.9543 213.602C35.912 211.96 35.0179 209.978 34.112 207.97C33.805 207.29 33.4967 206.606 33.1808 205.932C32.929 205.87 32.6997 205.719 32.4947 205.457C32.5423 205.586 32.5846 205.687 32.6169 205.765C32.6687 205.888 32.6949 205.951 32.6767 205.969C32.658 205.988 32.5919 205.959 32.4576 205.899C32.4061 205.876 32.3446 205.849 32.272 205.818C27.0148 203.56 21.98 200.529 18.9478 195.83C16.3767 191.844 16.0838 181.804 24.7237 184.144C28.5868 185.186 37.2475 202.6 34.0097 205.727C38.1152 210.822 42.4774 215.764 47.1239 220.458C47.3443 220.291 47.5875 220.154 47.8451 220.049C47.0654 218.677 46.2372 217.167 46.0198 216.612C44.1448 211.824 43.5626 200.341 51.5051 198.292C57.6085 196.717 57.3719 204.095 56.8818 207.535C56.0935 213.074 53.7011 216.593 50.6106 220.938C50.9883 221.829 50.6177 222.67 49.9505 223.242C57.6838 230.697 66.1803 237.447 75.5535 243.086L75.3944 242.488C74.6351 239.637 73.7498 236.313 73.8675 235.449C74.4804 230.927 77.5857 224.117 83.4754 223.376C95.8486 221.824 91.0983 239.392 83.116 245.383C82.9879 246.005 82.7933 246.555 82.4949 246.972C85.5458 248.553 88.6842 250.019 91.9142 251.353C96.7638 253.364 101.823 255.245 107.021 257.024C105.601 254.187 103.501 247.282 103.502 246.416C103.513 241.156 107.644 233.492 114.412 233.526C122.028 233.573 120.074 242.593 118.255 247.186C117.51 249.069 113.026 256.927 110.653 258.248C123.099 262.339 136.282 265.841 149.448 268.965C146.773 265.807 140.465 256.533 139.977 255.387C137.458 249.476 136.877 238.137 146.59 235.67C156.011 233.273 157.451 244.595 157.051 250.586C156.808 254.213 155.933 258.241 154.101 261.679C153.771 262.298 153.249 262.941 152.728 263.584C152.1 264.359 151.473 265.132 151.185 265.859C150.928 266.507 151.029 267.035 151.13 267.559C151.235 268.112 151.34 268.66 151.022 269.34C158.127 271.009 165.216 272.572 172.173 274.056C175.456 274.756 178.76 275.398 182.073 276.003C183.086 274.872 185.197 274.478 185.933 276.047C186.04 276.274 186.084 276.497 186.099 276.716C188.594 277.146 191.094 277.56 193.6 277.952C193.344 277.579 193.051 277.015 192.712 276.202C192.284 278.438 191.109 276.163 190.214 274.428C189.898 273.816 189.617 273.27 189.415 273.015C188.627 272.017 187.79 271.06 186.955 270.104L186.954 270.103C185.169 268.061 183.39 266.025 182.105 263.613C179.378 258.491 178.494 247.892 188.103 246.578C196.935 245.365 198.398 254.364 198.225 260.602C198.114 264.55 197.185 268.528 196.086 272.452C195.891 273.152 195.734 274.04 195.58 274.92C195.35 276.226 195.124 277.513 194.777 278.135C204.403 279.618 214.106 280.861 223.81 282.103L223.811 282.104C228.157 282.66 232.504 283.217 236.844 283.795C236.707 283.223 236.548 282.668 236.391 282.153C236.3 282.445 236.084 282.677 235.736 282.845C235.437 282.512 235.029 282.075 234.539 281.551C228.556 275.151 210.335 255.658 228.519 251.429C241.847 248.34 244.476 272.547 239.627 284.167C246.968 285.164 254.286 286.237 261.547 287.493C266.801 288.401 272.001 289.469 277.12 290.711C273.15 287.65 268.633 283.347 267.46 278.599C265.753 271.69 270.103 261.908 279.27 261.361C290.708 260.697 286.928 270.393 283.384 279.486C281.574 284.128 279.825 288.614 280.195 291.482C296.642 295.745 312.118 302.01 325.376 311.534C339.794 321.891 356.367 337.339 361.489 354.942C358.354 347.684 350.879 340.504 345.63 335.462L345.628 335.46C344.914 334.774 344.241 334.128 343.626 333.526C335.578 325.655 326.455 318.703 316.351 313.051C300.168 303.999 282.347 298.546 263.348 295.136C260.831 297.671 258.472 301.109 256.518 303.957C255.32 305.703 254.274 307.227 253.437 308.185C249.405 312.803 241.167 320.765 234.751 316.666C228.441 312.636 234.754 305.005 239.051 300.98C243.205 297.093 247.646 294.861 252.714 293.418C242.841 291.949 232.889 290.74 222.939 289.532C221.109 289.31 219.279 289.088 217.45 288.864C216.327 291.13 215.324 294.067 214.259 297.186C210.879 307.083 206.874 318.809 196.434 316.722C180.68 313.572 196.318 293.074 205.517 288.981C206.645 288.478 207.797 288.101 208.962 287.809C196.427 286.209 183.957 284.399 171.712 281.86C170.339 282.914 168.98 286.104 167.348 289.936C163.679 298.548 158.63 310.404 148.929 308.543C141.926 307.199 140.19 300.095 142.919 294C145.657 287.88 152.452 284.174 158.88 282.219C161.657 281.372 164.497 281.098 167.299 281.125C167.346 281.103 167.391 281.08 167.437 281.058L167.438 281.058C167.483 281.036 167.528 281.014 167.572 280.992C155.482 278.42 143.255 275.717 131.199 272.6C131.08 272.714 130.959 272.831 130.838 272.949C130.631 273.717 129.925 274.342 129.125 274.635C128.783 274.977 128.433 275.327 128.077 275.684C122.779 280.996 115.969 287.823 109.111 290.231C104.063 292.004 98.1034 291.085 99.8617 284.985C101.291 280.024 110.193 275.76 114.827 274.217C117.089 273.465 119.92 273.319 122.76 273.174C123.953 273.112 125.148 273.051 126.304 272.945C126.318 272.394 126.595 271.894 127.007 271.502C115.03 268.294 103.271 264.63 92.0273 260.246C90.1141 261.645 88.2494 263.669 86.3262 265.755C81.6983 270.777 76.7314 276.166 69.9346 274.119C59.8996 271.096 69.9504 260.638 76.0613 258.107C78.1247 257.252 80.3038 256.673 82.4992 256.282C73.8935 252.317 66.2081 247.251 59.4532 241.212C59.4335 241.237 59.416 241.261 59.3984 241.286L59.3982 241.286C59.3706 241.324 59.3428 241.363 59.3062 241.405C59.3175 241.39 59.3281 241.375 59.3382 241.36C59.3548 241.336 59.3701 241.312 59.3854 241.288L59.3858 241.287C59.4039 241.259 59.4219 241.231 59.4419 241.202C58.7668 240.597 58.1005 239.984 57.445 239.36C56.8771 239.393 56.3697 239.465 56.1325 239.51C59.5979 239.621 48.9487 246.421 46.9542 247.694C42.5449 250.509 36.4733 253.979 31.3629 252.612C27.0709 251.463 25.0636 247.398 27.2877 243.26ZM361.994 354.695C363.043 357.078 363.701 359.426 363.74 361.637C363.345 359.311 362.751 356.994 361.994 354.695Z"
                  fill="#F2F2F2"/>
        </svg>