<svg width="16" height="10" viewBox="0 0 16 10" fill="none" xmlns="http://www.w3.org/2000/svg">
                            <path fill-rule="evenodd" clip-rule="evenodd"
                                  d="M7.82792 9.526H8.78492C8.78492 9.526 9.07292 9.494 9.22092 9.336C9.36092 9.189 9.36092 8.916 9.36092 8.916C9.36092 8.916 9.34092 7.632 9.94092 7.443C10.5309 7.256 11.2809 8.683 12.0809 9.231C12.6909 9.651 13.1509 9.561 13.1509 9.561L15.2909 9.531C15.2909 9.531 16.4109 9.461 15.8809 8.581C15.8409 8.511 15.5809 7.931 14.3009 6.741C12.9609 5.501 13.1409 5.701 14.7509 3.551C15.7309 2.241 16.1309 1.441 16.0009 1.101C15.8909 0.781001 15.1609 0.861001 15.1609 0.861001L12.7609 0.881001C12.7609 0.881001 12.5809 0.861001 12.4509 0.941001C12.3209 1.021 12.2409 1.201 12.2409 1.201C12.2409 1.201 11.8609 2.221 11.3509 3.081C10.2699 4.9 9.83992 5 9.66992 4.88C9.26692 4.62 9.36992 3.827 9.36992 3.26C9.36992 1.5 9.63992 0.760001 8.84992 0.570001C8.58992 0.510001 8.39592 0.470001 7.72692 0.460001C6.86692 0.450001 6.14192 0.466001 5.73092 0.667001C5.46092 0.802001 5.25092 1.101 5.37092 1.117C5.53092 1.137 5.89092 1.215 6.08092 1.475C6.33092 1.812 6.32092 2.565 6.32092 2.565C6.32092 2.565 6.46092 4.642 5.99092 4.9C5.66092 5.074 5.22092 4.713 4.26092 3.063C3.77092 2.223 3.40092 1.283 3.40092 1.283C3.40092 1.283 3.33092 1.113 3.20092 1.013C3.05092 0.903001 2.83092 0.863001 2.83092 0.863001L0.54092 0.883001C0.54092 0.883001 0.20092 0.893001 0.0809202 1.043C-0.0290798 1.173 0.0709202 1.453 0.0709202 1.453C0.0709202 1.453 1.86092 5.643 3.89092 7.753C5.75092 9.688 7.86092 9.563 7.86092 9.563L7.82792 9.526Z"
                                  fill="#135876"/>
                        </svg>