<svg width="16" height="12" viewBox="0 0 16 12" fill="none" xmlns="http://www.w3.org/2000/svg">
                            <path fill-rule="evenodd" clip-rule="evenodd"
                                  d="M0 5.34501C0 4.051 0.16 2.75501 0.16 2.75501C0.16 2.75501 0.316 1.65501 0.796 1.16801C1.404 0.531005 2.204 0.551005 2.56 0.484005C3.84 0.360005 8 0.324005 8 0.324005C8 0.324005 11.362 0.328005 13.6 0.490005C13.914 0.528005 14.596 0.530005 15.204 1.16801C15.684 1.65401 15.84 2.75601 15.84 2.75601C15.84 2.75601 16 4.05001 16 5.34601V6.60401C16 7.90001 15.84 9.19401 15.84 9.19401C15.84 9.19401 15.684 10.296 15.204 10.782C14.596 11.42 13.914 11.422 13.6 11.46C11.362 11.622 8 11.626 8 11.626C8 11.626 3.84 11.589 2.56 11.466C2.204 11.399 1.404 11.419 0.796 10.782C0.316 10.295 0.16 9.19501 0.16 9.19501C0.16 9.19501 0 7.9 0 6.605V5.34501ZM6.348 8.07501V3.58001L10.671 5.83501L6.351 8.07501H6.348Z"
                                  fill="#135876"/>
                        </svg>