<svg width="616" height="527" viewBox="0 0 616 527" fill="none" xmlns="http://www.w3.org/2000/svg">
<path d="M529.879 398.262C527.181 388.966 520.973 380.627 522.292 370.197C522.701 367.017 522.906 363.817 523.308 360.637C523.836 356.474 521.461 354.079 517.034 354.732C511.673 355.476 506.275 355.916 500.864 356.052C493.361 356.255 485.855 355.796 478.433 354.68C465.033 352.753 452.412 348.432 440.168 342.837C436.221 341.161 432.363 339.282 428.609 337.21C425.706 335.501 423.133 333.462 421.893 330.018C421.444 328.778 420.963 327.234 419.307 326.06C415.955 329.002 415.051 333.126 414.82 337.21C414.411 344.328 417.829 349.421 423.931 353.103C428.787 356.025 434.217 356.824 439.475 358.315C458.607 363.731 478.136 367.663 496.872 374.445C502.197 376.365 506.538 379.347 509.744 384.038C511.961 387.284 514.065 390.682 516.704 393.565C523.051 400.472 523.797 408.396 520.847 416.656C517.695 425.447 516.22 434.752 516.5 444.088C516.869 456.425 514.184 468.063 510.806 479.714C508.471 487.769 506.643 495.977 506.406 504.586C503.833 504.751 501.187 505.068 498.542 505.074C394.189 505.49 322.624 447.494 298.5 356.052C273 259.396 177.975 188.762 154 243C102 360.637 622.5 1 1.5 1" stroke="white" stroke-width="2" stroke-linecap="round" stroke-linejoin="round"/>
<path d="M503.16 221.754C494.069 222.671 486.231 225.884 480.729 233.63C473.049 244.416 467.943 256.14 467.93 269.592C467.901 274.822 469.366 279.951 472.152 284.377C478.321 281.584 484.871 279.727 491.588 278.868C492.464 278.749 493.351 278.749 494.227 278.868C499.67 279.594 500.996 282.589 497.842 287.089C496.943 288.369 495.951 289.582 494.874 290.717C490.018 295.791 483.81 295.995 478.38 291.377C475.973 289.261 473.764 286.929 471.783 284.41C460.295 289.3 449.54 295.759 439.825 303.602C434.892 307.658 430.262 312.068 425.97 316.797C422.487 320.524 422.374 324.298 425.97 328.012C430.021 332.175 435.206 334.564 440.484 336.536C460.574 344.064 481.534 347.389 502.81 349.157C509.937 349.836 517.093 350.147 524.252 350.087C526.713 350.041 527.617 350.998 527.94 353.386C528.6 358.143 528.151 362.873 527.808 367.577C527.306 374.445 527.709 381.142 529.853 387.706C530.521 389.536 531.054 391.413 531.45 393.32C531.661 394.587 531.951 396.118 531.146 397.246C528.877 400.432 528.507 404.213 527.551 407.802" stroke="white" stroke-width="2" stroke-linecap="round" stroke-linejoin="round"/>
<path d="M551.981 162.074C552.053 162.892 551.842 163.651 552.641 164.416C557.747 169.483 558.73 176.232 559.898 182.889C560.61 186.926 561.422 191.208 561.118 195.068C560.63 201.434 561.29 208.296 556.738 213.989C555.26 215.718 553.55 217.234 551.657 218.495C550.628 219.247 549.428 219.768 548.359 220.474C544.783 222.968 544.4 224.776 547.039 228.035C551.057 232.895 554.077 238.5 555.926 244.529C558.312 252.102 558.727 260.158 557.133 267.936C555.873 273.782 557.569 278.532 560.584 283.11C563.599 287.689 567.221 292.188 568.158 297.968C569.095 303.747 570.302 309.599 571.074 315.458C572.545 326.594 574.993 337.572 576.141 348.761C576.338 350.635 576.332 351.513 574.458 352.496C571.903 353.867 569.064 354.623 566.165 354.706C563.744 354.778 561.593 354.25 560.571 351.737C559.64 349.474 560.406 347.376 561.587 345.496C562.49 344.057 564.226 343.246 564.964 341.59C559.278 337.994 537.955 342.982 533.745 348.9C534.88 351.348 536.807 351.084 539.122 350.826C543.8 350.305 548.161 348.062 552.977 348.445C553.432 348.484 553.967 348.22 554.607 349.302C555.068 358.719 553.814 368.142 550.905 377.111C548.032 385.838 546.59 394.972 546.637 404.16C546.696 412.69 546.703 421.274 544.077 429.567C541.986 436.164 539.076 442.425 536.213 448.699C532.558 456.748 528.646 464.724 526.581 473.407C524.819 480.848 524.601 488.152 528.223 495.178C529.028 496.722 529.662 498.345 528.883 500.12" stroke="white" stroke-width="2" stroke-linecap="round" stroke-linejoin="round"/>
<path d="M530.209 501.485C529.642 503.498 528.349 504.058 526.251 504.217C522.391 504.507 518.572 505.213 514.699 504.448C513.75 504.337 512.836 504.022 512.02 503.524C510.991 502.811 510.298 502.204 510.384 500.826C510.483 499.183 511.803 499.546 512.72 499.17C518.446 496.834 524.113 498.239 529.127 500.667C534.19 503.143 539.748 504.442 545.383 504.467C569.919 504.75 592.456 513.715 614.5 525.144" stroke="white" stroke-width="2" stroke-linecap="round" stroke-linejoin="round"/>
<path d="M457.637 138.983C461.101 140.639 464.624 142.163 467.896 144.208C468.645 144.652 469.314 145.219 469.876 145.884C475.45 152.395 481.507 158.274 489.965 161.177C492.38 162.001 494.867 162.245 497.281 162.984C502.487 164.588 504.36 166.659 504.539 171.97C504.605 174.174 504.895 176.377 504.835 178.567C504.492 191.235 521.177 198.492 531.225 192.079C534.682 189.882 536.299 186.498 536.853 182.533C537.229 179.854 535.579 177.05 532.235 176.285C528.869 175.431 525.454 174.788 522.009 174.358C519.185 174.075 516.962 172.735 514.751 171.277C512.541 169.819 511.677 167.49 511.71 164.713C511.756 160.853 512.159 156.967 510.819 153.154C510.008 150.845 508.636 148.833 507.817 146.557C506.26 142.249 505.225 137.835 507.158 133.362C508.477 130.281 508.477 126.969 509.018 123.769C509.556 120.758 510.598 117.858 512.099 115.193C515.233 109.387 521.369 109.202 525.565 110.977C532.677 113.992 536.78 119.553 537.44 127.391C537.617 128.852 537.957 130.288 538.456 131.673C538.885 132.992 539.017 134.193 541.154 133.118C542.804 132.293 543.727 134.101 544.044 135.638C544.803 139.306 542.381 143.179 538.825 144.947C537.282 145.712 536.12 147.263 534.867 148.503C530.249 152.95 525.169 155.279 518.683 152.831C516.748 152.213 514.761 151.772 512.746 151.511C512.176 151.518 511.611 151.623 511.077 151.822" stroke="white" stroke-width="2" stroke-linecap="round" stroke-linejoin="round"/>
<path d="M501.51 128.427C500.633 128.427 499.597 128.124 498.871 128.48C491.984 131.937 484.786 130.222 477.76 129.681C468.306 128.948 458.904 127.385 449.391 128.731C447.2 129.001 445.085 129.705 443.169 130.802C439.805 132.781 439.086 137.208 440.794 141.635C442.615 146.359 445.465 150.502 448.454 154.461C453.62 161.302 459.67 167.391 465.607 173.593C468.906 177.083 472.64 180.19 476.11 183.542C477.938 185.303 479.297 184.861 480.399 182.882C481.659 180.606 482.879 178.264 484.021 175.955C484.25 175.481 484.576 175.061 484.977 174.72C485.378 174.379 485.845 174.126 486.35 173.976" stroke="white" stroke-width="2" stroke-linecap="round" stroke-linejoin="round"/>
<path d="M561.547 195.365C563.407 195.47 563.685 193.761 564.509 192.726C572.769 182.295 581.089 171.904 589.23 161.375C594.989 153.926 600.445 146.267 604.404 137.624C605.664 134.879 606.852 132.069 606.997 129.047C607.175 125.353 606.495 123.341 601.765 123.11C590.012 122.555 578.24 123.666 566.799 126.408C562.913 127.332 558.961 128.256 554.923 127.398C552.007 126.771 551.387 128.717 551.354 130.697C551.332 133.569 551.553 136.438 552.014 139.273C552.37 141.602 552.073 142.499 549.335 142.717C546.221 142.961 543.84 145.442 541.867 147.645C540.695 148.929 539.619 150.296 538.647 151.736C537.262 153.84 536.246 155.483 537.328 158.129C537.988 159.686 537.104 161.427 536.16 163.064C534.141 166.494 534.003 169.391 537.11 171.937C540.218 174.484 541.187 177.875 541.972 181.675C544.915 181.015 545.053 178.805 545.014 176.555C544.961 173.257 543.285 170.327 543.292 166.989C543.292 165.01 543.391 163.229 545.04 162.074C547.989 160.016 549.81 157.093 551.638 154.157" stroke="white" stroke-width="2" stroke-linecap="round" stroke-linejoin="round"/>
<path d="M549.672 142.282C547.343 137.195 545.429 132.273 547.884 126.395C549.764 121.902 547.264 117.581 544.664 113.959C538.786 105.752 530.282 101.714 518.994 103.364C518.53 103.36 518.075 103.481 517.674 103.713C512.594 108.279 504.479 109.354 502.401 117.515C501.464 121.21 500.574 124.508 501.689 128.467C502.949 132.933 502.032 137.505 500.303 141.991C498.865 145.726 496.958 149.433 496.608 153.497C496.14 159 500.626 162.615 507.118 160.398" stroke="white" stroke-width="2" stroke-linecap="round" stroke-linejoin="round"/>
<path d="M551.651 163.697C550.941 164.163 550.361 164.801 549.965 165.552C549.569 166.303 549.371 167.143 549.388 167.992C549.111 177.829 550.378 187.467 554.006 196.671C555.609 200.748 556.949 201.566 559.904 201.289" stroke="white" stroke-width="2" stroke-linecap="round" stroke-linejoin="round"/>
<path d="M488.645 169.331C486.93 171.587 487.055 174.292 486.574 176.905C485.694 182.021 483.446 186.804 480.069 190.746C479.132 191.828 477.43 192.904 478.848 194.316C480.122 195.602 481.349 197.614 484.126 196.196C485.294 195.596 487.346 194.382 488.995 196.038C487.939 199.943 486.528 203.763 486.666 207.913C486.844 213.151 489.45 216.76 493.923 219.129C495.586 219.993 497.526 220.323 498.865 221.768" stroke="white" stroke-width="2" stroke-linecap="round" stroke-linejoin="round"/>
<path d="M498.871 142.941C494.774 142.044 490.71 142.882 486.673 143.324C481.731 143.852 476.777 144.419 471.822 144.287C471.145 144.359 470.48 144.517 469.843 144.756" stroke="white" stroke-width="2" stroke-linecap="round" stroke-linejoin="round"/>
<path d="M575.732 141.925C570.77 150.687 563.032 156.288 554.283 160.715C553.753 160.902 553.201 161.017 552.641 161.058" stroke="white" stroke-width="2" stroke-linecap="round" stroke-linejoin="round"/>
<path d="M590.576 131.37C586.869 135.042 582.646 138.153 578.041 140.606C576.913 141.219 575.798 141.186 574.406 141.094C568.468 140.692 562.576 139.517 556.592 140.309C555.258 140.554 553.939 140.873 552.641 141.266" stroke="white" stroke-width="2" stroke-linecap="round" stroke-linejoin="round"/>
<path d="M550.991 143.245C552.231 145.27 552.475 147.639 552.548 149.842C552.654 153.24 554.131 156.578 552.746 160.108C552.244 161.388 551.895 161.85 550.661 161.711" stroke="white" stroke-width="2" stroke-linecap="round" stroke-linejoin="round"/>
<path d="M509.097 150.502C502.823 152.343 504.011 153.728 505.799 157.759C505.992 158.403 506.109 159.067 506.148 159.738" stroke="white" stroke-width="2" stroke-linecap="round" stroke-linejoin="round"/>
</svg>
